<?xml version="1.0" standalone="no"?>
<!DOCTYPE svg PUBLIC "-//W3C//DTD SVG 20010904//EN"
 "http://www.w3.org/TR/2001/REC-SVG-20010904/DTD/svg10.dtd">
<svg version="1.0" xmlns="http://www.w3.org/2000/svg"
 width="400.000000pt" height="400.000000pt" viewBox="0 0 400.000000 400.000000"
 preserveAspectRatio="xMidYMid meet">
<metadata>
Created by potrace 1.11, written by Peter Selinger 2001-2013
</metadata>
<g transform="translate(0.000000,400.000000) scale(0.100000,-0.100000)"
fill="#000000" stroke="none">
<path d="M0 3914 c0 -71 3 -90 18 -101 16 -14 16 -14 -1 -9 -16 5 -17 -6 -15
-182 l3 -187 24 3 c19 2 21 0 12 -12 -15 -18 9 -39 34 -30 15 6 16 3 10 -17
-10 -31 -17 -37 -22 -21 -6 16 -44 52 -55 52 -12 0 -8 -132 5 -147 6 -9 6 -13
-2 -13 -15 0 -14 -93 1 -108 9 -9 9 -12 0 -12 -24 0 -12 -48 17 -69 16 -11 31
-30 34 -42 5 -19 0 -17 -30 12 -35 33 -36 32 -16 -18 3 -7 0 -13 -6 -13 -8 0
-11 -47 -11 -152 0 -130 2 -154 17 -171 17 -19 17 -20 1 -14 -16 6 -18 0 -18
-41 0 -45 3 -50 45 -82 51 -39 53 -53 2 -21 -43 26 -47 26 -47 -1 0 -12 12
-33 28 -46 21 -18 22 -21 5 -13 -32 16 -33 15 -33 -26 0 -24 8 -45 22 -60 20
-22 16 -29 -14 -24 -5 0 -8 -20 -8 -45 0 -32 5 -51 18 -61 16 -14 16 -14 0 -9
-16 5 -18 -9 -18 -178 1 -179 1 -183 23 -194 l22 -11 -23 0 -23 -1 1 -571 c1
-494 4 -574 17 -587 11 -11 12 -17 2 -22 -6 -4 -8 -13 -4 -19 5 -9 11 -9 23 1
12 10 14 10 8 1 -13 -23 11 -14 26 9 16 23 33 12 18 -12 -5 -8 -25 -14 -49
-14 l-41 0 0 -44 c0 -36 3 -43 16 -38 9 3 22 6 30 6 8 0 14 9 14 20 0 11 -7
20 -16 20 -8 0 -12 5 -9 10 3 6 19 10 35 10 16 0 33 7 38 16 7 13 12 10 25
-18 10 -20 17 -26 17 -15 0 9 5 17 10 17 6 0 10 8 10 18 0 11 8 17 26 18 25 2
25 2 7 -18 -14 -16 -15 -22 -5 -25 16 -6 -4 -33 -25 -33 -7 0 -16 -7 -19 -15
-4 -8 -10 -12 -15 -9 -5 3 -6 -2 -3 -10 7 -19 16 -20 31 -5 8 8 20 9 42 1 33
-12 52 1 32 21 -7 7 -5 14 7 23 9 8 21 14 26 14 6 0 1 -6 -10 -14 -10 -8 -16
-18 -12 -22 11 -10 38 16 38 37 0 11 5 19 10 19 14 0 13 -16 -3 -41 -9 -17 -9
-23 1 -26 6 -3 12 -11 12 -19 0 -9 4 -12 10 -9 5 3 10 -3 10 -14 0 -25 6 -26
28 -5 24 24 28 -1 4 -26 -17 -18 -20 -19 -32 -5 -17 20 -25 19 -27 -3 -1 -10
7 -24 18 -30 13 -8 19 -9 19 -1 0 6 10 9 22 8 13 -1 40 6 60 15 21 9 48 16 60
17 l23 0 -22 16 c-28 19 -30 33 -3 26 18 -5 18 -3 7 27 -10 27 -10 33 6 41 9
6 17 15 18 22 0 7 14 23 31 37 31 24 31 24 26 2 -4 -15 -2 -22 8 -22 10 0 13
8 8 28 -11 52 -11 52 -53 31 -46 -22 -68 -24 -74 -6 -2 6 -8 9 -12 5 -4 -4 -2
-14 5 -23 11 -13 9 -15 -14 -15 -31 0 -32 4 -6 32 22 24 19 38 -4 19 -8 -7
-21 -9 -27 -5 -7 4 -17 1 -23 -7 -11 -15 -59 -22 -50 -7 3 4 0 16 -5 25 -9 15
-10 13 -11 -14 0 -39 -11 -42 -27 -8 -6 14 -7 25 -2 25 16 0 10 18 -8 24 -10
2 0 2 21 -1 28 -4 37 -2 32 6 -4 6 -3 11 3 11 14 0 26 -22 24 -45 -2 -11 0
-14 3 -7 3 6 11 12 18 12 7 0 17 5 24 12 9 9 3 16 -30 28 -29 11 -45 13 -50 6
-5 -7 -11 -7 -20 2 -9 9 -9 12 0 12 7 0 12 4 12 10 0 5 -6 8 -13 6 -6 -1 -9
-1 -4 1 4 3 -3 14 -15 24 l-23 20 25 -13 c13 -7 30 -19 38 -25 18 -17 23 -16
15 4 -6 14 -1 13 24 -5 18 -13 40 -20 54 -17 13 3 26 0 30 -7 4 -7 11 -2 19
12 11 20 10 22 -3 17 -11 -4 -14 -2 -10 9 3 8 18 14 37 13 17 0 25 -3 18 -6
-14 -5 -17 -43 -3 -43 5 0 11 4 13 9 2 5 9 3 16 -5 11 -12 9 -14 -7 -14 -19 0
-19 -3 -9 -26 l12 -26 17 21 c11 13 24 19 33 15 9 -3 16 -1 16 6 0 6 5 8 10 5
6 -4 7 -11 4 -17 -4 -6 1 -8 15 -3 12 4 30 0 43 -9 12 -9 17 -16 10 -16 -6 0
-12 -7 -12 -15 0 -20 19 -19 42 2 18 16 18 16 12 -1 -5 -14 -3 -17 11 -15 31
6 28 26 -5 38 -18 6 -30 16 -28 23 6 18 28 22 28 5 0 -25 28 -28 33 -4 3 22 4
21 14 -3 7 -16 7 -29 1 -37 -10 -13 -3 -33 13 -33 5 0 9 9 9 20 0 11 5 20 10
20 6 0 10 5 10 11 0 5 -5 7 -11 3 -7 -4 -10 -1 -7 7 5 16 70 17 76 1 2 -6 11
-8 19 -5 12 5 15 2 10 -10 -4 -11 -1 -17 8 -17 12 0 15 15 15 70 0 58 -3 68
-15 64 -8 -4 -15 -2 -15 3 0 18 -50 34 -68 23 -14 -9 -13 -10 7 -4 16 4 21 3
17 -5 -8 -12 -66 -44 -71 -39 -5 5 -8 31 -6 58 1 20 3 22 11 10 9 -13 11 -13
20 0 5 8 10 21 10 28 0 11 21 17 44 13 4 -1 14 6 21 15 7 10 19 15 29 11 13
-5 16 0 16 23 0 17 -4 30 -10 30 -5 0 -10 11 -10 25 0 22 -2 24 -20 13 -18
-11 -18 -14 -3 -30 15 -17 15 -18 -13 -14 -89 15 -115 16 -109 6 8 -13 -5 -13
-25 0 -13 8 -12 11 5 24 19 14 19 15 2 16 -11 0 -21 -9 -24 -19 -4 -16 -8 -18
-23 -9 -14 9 -25 7 -54 -10 -20 -12 -36 -17 -36 -11 0 5 -11 7 -25 5 -14 -3
-23 -1 -20 4 6 10 -23 22 -36 15 -5 -4 -6 0 -3 8 7 19 -25 31 -43 16 -7 -7
-16 -10 -19 -7 -2 3 8 13 23 23 18 12 28 14 31 7 6 -18 20 -14 27 8 10 33 21
23 17 -15 -5 -41 4 -46 18 -10 5 14 14 25 20 25 6 0 8 -5 5 -10 -3 -5 -1 -10
5 -10 7 0 10 -7 6 -15 -4 -10 1 -15 15 -15 11 0 22 7 25 15 4 8 10 13 14 10 5
-3 21 10 35 30 15 19 31 32 36 29 10 -6 41 21 33 29 -3 2 7 4 21 4 30 1 29 3
10 -33 -23 -45 -18 -59 10 -26 14 17 25 35 25 41 0 6 7 11 16 11 8 0 12 -4 9
-10 -6 -9 8 -14 28 -11 4 0 7 -10 7 -24 0 -14 5 -25 11 -25 5 0 9 8 8 17 -3
36 2 49 11 28 6 -14 8 -7 5 25 -2 25 -3 66 -4 91 -1 33 -5 46 -16 46 -8 0 -15
-6 -15 -14 0 -16 -17 -18 -22 -2 -5 16 -58 -11 -58 -30 0 -12 -2 -13 -9 -3 -6
10 -34 2 -124 -34 -100 -41 -115 -49 -104 -62 10 -13 9 -14 -8 -3 -17 11 -29
9 -74 -8 -55 -21 -68 -21 -57 -2 4 6 13 8 21 4 8 -3 15 0 15 6 0 6 3 10 8 9
11 -3 56 13 72 27 8 7 32 15 53 19 24 5 37 12 37 23 0 11 7 14 23 10 12 -3 42
3 67 13 25 10 37 19 27 19 -10 1 -15 6 -12 11 8 13 -33 28 -89 33 -25 2 -49 7
-53 12 -4 4 2 5 15 2 17 -4 22 -1 22 13 0 10 -6 21 -12 23 -7 3 -1 6 15 6 17
1 27 -4 27 -13 0 -8 10 -18 23 -21 37 -11 77 -30 77 -36 0 -3 16 -6 36 -7 29
-1 35 2 30 14 -4 11 -1 14 13 9 23 -7 71 4 71 16 0 4 -12 15 -27 23 -26 14
-26 15 -6 16 12 0 25 -6 30 -12 5 -9 10 -1 13 22 4 19 2 41 -4 48 -7 9 -5 16
4 22 10 6 14 39 16 127 1 65 5 139 9 164 l7 45 -36 -4 c-41 -5 -86 4 -86 17 0
13 112 23 120 11 6 -9 40 83 40 108 0 15 -37 16 -45 1 -4 -6 -12 -1 -20 14
-10 21 -12 51 -6 118 2 29 42 38 87 19 l41 -18 43 44 c23 24 51 46 61 49 23 8
25 25 4 25 -8 0 -15 4 -15 8 0 5 13 7 29 4 15 -2 41 3 57 11 16 8 45 17 63 21
92 17 109 25 104 47 -5 16 -2 20 8 17 8 -3 13 -11 11 -17 -4 -21 23 -22 83 -1
69 24 207 50 236 45 11 -2 17 -1 15 4 -3 4 -1 13 5 21 7 13 9 13 10 0 0 -8 2
-25 3 -37 1 -12 -1 -20 -6 -17 -4 3 -4 -6 2 -20 5 -14 6 -26 1 -26 -11 0 7
-73 30 -127 24 -54 24 -51 -8 -56 -28 -4 -28 -4 2 -6 23 -1 35 -9 48 -31 10
-16 24 -30 31 -30 19 0 49 -37 43 -54 -3 -8 1 -22 9 -33 9 -10 13 -12 9 -5 -3
6 -3 18 2 25 4 6 8 28 8 47 0 32 2 35 34 38 l34 3 -5 -58 c-6 -69 5 -97 60
-144 30 -27 38 -42 41 -74 2 -22 7 -45 13 -52 5 -7 7 -16 4 -22 -3 -5 0 -12 6
-14 8 -4 7 -6 -4 -6 -9 -1 -19 5 -21 12 -3 7 -6 6 -6 -5 -1 -9 8 -20 19 -23
11 -4 31 -17 44 -30 21 -21 22 -25 8 -28 -10 -3 3 -5 27 -6 48 -1 47 -9 -2
-29 l-32 -12 35 6 c19 3 42 7 51 9 12 2 15 -2 12 -14 -2 -9 7 -28 20 -41 27
-28 46 -83 42 -123 -2 -15 1 -29 6 -33 5 -3 9 -2 9 3 7 106 1 171 -18 203 -11
19 -24 53 -28 75 -4 21 -15 48 -25 59 -11 11 -19 23 -19 28 0 13 -63 1 -74
-15 -9 -12 -13 -12 -24 -1 -8 8 -8 15 -2 19 6 4 9 18 8 33 -4 37 28 43 42 8 5
-14 14 -26 20 -26 14 0 13 4 -10 44 -21 34 -44 51 -60 41 -12 -7 -70 51 -70
70 0 16 8 17 72 10 40 -3 89 -15 110 -26 27 -14 36 -15 32 -5 -3 7 -23 19 -46
25 -32 10 -39 16 -35 32 3 10 1 16 -4 13 -6 -3 -17 0 -25 7 -8 6 -17 9 -21 5
-3 -3 -1 -6 5 -6 19 0 14 -17 -7 -23 -14 -3 -17 0 -14 14 3 11 -2 34 -11 52
-26 55 -46 155 -32 162 8 3 7 7 -2 11 -10 5 -9 9 5 20 13 10 14 13 3 12 -8 -2
-15 3 -16 10 -1 6 -2 16 -3 22 0 5 -18 12 -38 15 -83 14 -167 55 -143 70 6 4
7 11 4 17 -5 8 -1 9 10 5 45 -18 69 -18 120 -2 61 19 99 51 78 64 -9 5 -11 17
-6 34 7 30 -6 35 -30 12 -8 -8 -27 -15 -43 -15 l-28 0 34 22 c22 14 29 24 21
26 -8 3 -16 0 -18 -6 -3 -9 -9 -9 -24 -1 -15 8 -22 8 -28 0 -5 -8 -14 -9 -32
-2 -14 5 -29 7 -32 4 -9 -9 -36 17 -36 35 0 13 3 13 19 -2 18 -16 19 -16 17 1
-1 13 6 18 27 18 15 -1 27 2 27 6 0 28 91 82 98 59 2 -6 11 -2 20 11 15 21 16
21 29 4 12 -17 13 -17 13 -2 0 9 5 17 10 17 6 0 10 -6 10 -14 0 -8 -4 -18 -10
-21 -5 -3 -10 -14 -10 -23 0 -12 9 -7 30 18 16 19 30 41 30 48 0 6 9 12 20 12
11 0 20 -4 20 -10 0 -13 62 -3 71 12 26 40 -8 87 -91 129 -25 13 -47 26 -50
29 -3 3 -18 16 -34 28 -33 25 -66 29 -66 7 0 -8 -4 -15 -10 -15 -24 0 -7 -27
30 -48 22 -12 40 -27 40 -33 0 -6 10 -19 22 -28 13 -11 19 -24 15 -33 -6 -18
-91 -52 -153 -62 -40 -7 -41 -6 -37 17 3 14 0 28 -6 32 -8 4 -3 14 14 27 31
24 24 42 -10 26 -23 -10 -29 -20 -26 -41 2 -13 -31 -21 -38 -8 -4 6 -22 13
-39 15 -18 2 -35 6 -38 9 -9 8 -22 200 -17 230 3 13 0 28 -6 31 -14 9 -14 69
0 83 17 17 37 5 54 -31 19 -39 54 -56 125 -63 30 -3 63 -9 73 -14 13 -8 17 -6
17 11 0 32 15 23 16 -11 1 -16 6 -35 11 -40 6 -6 9 14 9 56 -1 45 -5 65 -13
65 -17 0 -16 6 3 35 12 19 25 25 50 25 24 0 34 5 34 15 0 8 -3 15 -7 15 -5 0
-16 12 -26 25 -13 19 -15 30 -8 44 8 14 5 23 -14 41 l-24 22 24 26 24 26 63
-19 c50 -15 74 -30 116 -72 55 -55 65 -62 57 -40 -3 6 6 21 20 31 14 10 25 25
25 33 0 8 12 25 26 40 14 14 23 27 20 30 -3 3 -24 7 -48 8 -24 2 -54 8 -68 13
-22 9 -20 10 15 7 22 -2 55 -3 74 -4 23 -1 43 -11 65 -33 29 -30 33 -41 39
-108 10 -123 -39 -268 -101 -295 -12 -5 -22 -17 -22 -25 0 -8 -2 -73 -4 -145
-2 -71 0 -140 5 -152 8 -21 82 -109 150 -178 16 -16 29 -36 29 -42 0 -7 5 -13
10 -13 6 0 10 5 10 10 0 18 17 11 50 -20 40 -38 54 -38 45 -2 -6 23 -2 21 24
-15 17 -24 37 -43 44 -43 6 0 34 -11 62 -25 57 -30 87 -27 55 5 -11 11 -20 25
-20 32 0 6 7 3 15 -8 12 -16 14 -16 15 -3 0 9 7 22 16 30 13 10 17 10 24 -1 5
-8 5 -17 0 -20 -18 -11 -3 -43 26 -56 20 -10 22 -13 8 -10 -12 2 -28 -1 -35
-6 -11 -8 -10 -9 4 -4 9 3 17 2 17 -3 0 -4 19 -13 41 -20 31 -9 44 -10 53 -1
8 8 7 9 -6 5 -11 -4 -18 -2 -18 4 0 6 4 11 9 11 5 0 12 11 15 25 4 17 11 23
19 18 12 -7 65 -5 80 4 4 3 3 11 -4 19 -14 17 2 19 19 2 15 -15 15 -4 1 25 -9
19 -7 18 10 -3 24 -30 28 -15 5 19 -11 15 -13 26 -6 33 6 6 12 6 16 -1 4 -6 2
-11 -4 -11 -6 0 -8 -4 -5 -10 3 -5 21 -10 38 -10 24 0 28 3 17 10 -13 8 -13
11 0 22 8 7 11 9 7 4 -10 -13 12 -36 34 -36 11 0 19 -4 19 -10 0 -16 17 -12
37 8 16 16 65 42 79 42 3 0 3 -4 -1 -9 -6 -11 33 -36 43 -27 3 3 -1 6 -8 6
-11 0 -12 2 -1 13 10 10 15 8 26 -7 13 -16 16 -17 29 -3 14 13 14 16 -1 22
-15 5 -15 7 -3 15 12 8 12 10 -3 16 -18 7 -19 34 -2 46 6 5 5 8 -3 8 -7 0 -15
-6 -17 -12 -3 -8 -23 -13 -49 -12 -35 0 -46 -3 -49 -18 -5 -19 -24 -23 -46 -9
-8 5 -11 16 -7 27 6 16 7 16 19 0 12 -16 14 -16 31 3 10 11 24 17 32 14 8 -3
14 0 14 6 0 6 -7 11 -15 11 -17 0 -19 12 -5 26 7 7 -2 9 -25 6 -19 -2 -33 -7
-31 -11 3 -4 -7 -7 -21 -6 -15 0 -28 6 -31 14 -3 10 0 12 11 8 12 -4 14 -2 10
10 -5 13 0 14 37 8 26 -4 40 -4 37 2 -4 6 5 15 19 22 20 9 24 16 19 32 -5 14
-2 25 6 30 20 13 29 11 29 -6 0 -8 -6 -15 -14 -15 -9 0 -12 -7 -9 -20 5 -19 7
-19 33 -3 28 16 28 17 14 56 -11 31 -12 43 -3 51 9 8 10 8 5 -1 -4 -7 -3 -13
2 -13 5 0 12 -8 14 -17 4 -16 15 -18 79 -15 41 2 85 4 99 6 14 2 33 4 43 4 25
3 11 22 -16 23 -20 0 -21 1 -3 8 18 7 18 8 3 14 -9 3 -24 4 -32 1 -8 -4 -15
-3 -15 0 0 4 10 11 23 16 19 7 17 9 -16 9 -26 1 -37 5 -34 14 2 6 17 11 33 10
20 -1 22 0 7 4 -22 4 -33 33 -13 33 14 0 13 27 -2 32 -7 3 -8 9 -3 19 5 8 10
21 10 29 0 12 18 16 80 21 44 3 74 6 68 7 -7 1 -13 7 -13 13 0 5 4 8 9 5 5 -3
13 0 18 7 13 16 14 55 2 62 -5 4 -9 -3 -9 -14 0 -17 -6 -20 -44 -19 -24 0 -48
-2 -54 -6 -6 -3 -9 2 -7 11 1 10 9 17 19 15 9 -2 16 3 16 11 0 14 -62 18 -75
5 -8 -8 -45 2 -45 13 0 9 20 23 35 24 24 2 65 18 65 25 0 5 -12 7 -26 5 -28
-3 -45 22 -24 35 9 6 6 10 -11 16 -13 4 -27 7 -31 6 -4 -1 -5 5 -2 13 4 9 0
15 -9 15 -27 0 -31 -22 -8 -42 19 -15 20 -19 8 -24 -9 -3 -24 -4 -34 -2 -10 2
-24 -3 -31 -12 -11 -13 -11 -13 -6 3 3 9 1 17 -4 17 -7 0 -9 13 -5 34 6 36
-13 59 -28 35 -8 -12 -11 -12 -19 1 -14 21 -12 30 5 30 8 0 15 5 15 10 0 6 7
10 17 10 15 0 15 2 -1 19 -10 11 -24 17 -32 14 -8 -3 -14 1 -14 11 0 26 -19
18 -26 -10 -4 -17 -2 -29 7 -35 8 -5 10 -9 5 -9 -5 0 -24 17 -42 38 -20 22
-33 31 -34 22 0 -8 -7 -2 -15 14 -17 33 -12 46 19 46 12 0 26 4 31 9 14 14 95
1 95 -14 0 -19 38 -26 44 -8 10 25 7 75 -4 68 -5 -3 -10 -1 -10 4 0 6 5 11 10
11 6 0 10 7 10 15 0 8 -8 15 -17 15 -28 0 -5 13 29 17 50 5 58 21 25 47 -27
21 -27 24 -12 39 9 9 14 21 11 26 -8 12 47 22 59 10 5 -6 5 -9 -3 -9 -19 0
-14 -38 8 -60 l21 -21 19 23 c13 16 18 34 14 60 -3 30 -1 36 11 32 8 -4 15 -2
15 4 0 6 -6 13 -12 15 -9 3 -3 14 16 31 34 30 33 33 -14 41 -44 8 -58 21 -41
38 10 10 14 8 22 -6 10 -17 12 -16 35 9 14 14 23 32 20 40 -3 7 0 14 6 16 6 2
8 10 4 16 -9 15 -36 16 -36 2 0 -5 -4 -10 -9 -10 -4 0 -6 12 -3 27 4 24 3 25
-19 19 -13 -4 -31 -8 -38 -10 -8 -1 -17 -8 -19 -14 -2 -7 -10 -12 -18 -12 -11
0 -12 5 -5 18 6 11 5 21 -4 29 -7 6 -15 10 -17 8 -2 -3 -24 -1 -49 3 -39 7
-44 11 -45 34 -1 15 -7 34 -14 43 -22 27 -3 28 24 2 18 -18 21 -28 13 -36 -14
-14 -5 -22 13 -11 11 7 12 14 3 33 -15 32 3 42 32 20 14 -11 16 -17 7 -20 -17
-6 -15 -21 5 -41 13 -13 17 -14 21 -4 3 9 8 7 16 -8 6 -13 16 -22 21 -22 17 2
18 33 1 51 -23 25 -10 62 19 55 19 -5 24 0 34 27 13 37 14 34 -17 44 -21 6
-23 4 -17 -14 5 -16 0 -23 -19 -33 -38 -16 -44 -1 -13 28 15 14 27 31 27 38 0
15 -47 39 -54 27 -8 -12 -52 -19 -66 -11 -6 4 -12 20 -13 36 -2 23 2 30 20 32
12 2 27 10 33 18 11 12 -51 14 -469 14 -314 0 -481 -3 -481 -10 0 -5 -9 -10
-20 -10 -11 0 -20 4 -20 9 0 6 -114 10 -289 11 l-289 0 -16 -33 c-8 -19 -23
-40 -32 -48 -14 -11 -19 -10 -34 9 -10 12 -23 22 -29 22 -16 0 -13 17 4 24 62
23 -32 26 -908 26 -725 0 -926 -3 -936 -12 -11 -10 -13 -10 -7 0 5 9 -9 12
-58 12 l-66 0 0 -86z m341 61 l34 -16 -35 6 -35 6 22 -18 c23 -18 23 -18 -27
-18 -53 0 -66 11 -25 21 14 3 25 12 25 20 0 17 0 17 41 -1z m2306 -51 c-1 -2
-9 1 -16 5 -9 6 -11 16 -5 32 7 24 7 24 15 -5 5 -17 7 -31 6 -32z m-987 15 c0
-5 -4 -9 -10 -9 -5 0 -10 7 -10 16 0 8 5 12 10 9 6 -3 10 -10 10 -16z m1807
-1 c-3 -8 -6 -5 -6 6 -1 11 2 17 5 13 3 -3 4 -12 1 -19z m-1707 2 c0 -5 -2
-10 -4 -10 -3 0 -8 5 -11 10 -3 6 -1 10 4 10 6 0 11 -4 11 -10z m-496 -25 c11
-8 17 -17 14 -20 -3 -3 -16 3 -29 14 -27 23 -14 28 15 6z m387 -8 c-5 -5 -18
-7 -28 -3 -14 6 -15 9 -4 16 19 11 46 1 32 -13z m-1471 -24 c0 -16 -16 -17
-26 -2 -3 6 -18 8 -33 5 -26 -6 -26 -6 -3 7 12 7 19 17 15 21 -4 4 4 2 20 -5
15 -7 27 -18 27 -26z m243 1 c-4 -12 -33 -15 -33 -3 0 4 -3 14 -6 23 -5 13 -2
13 19 3 14 -6 23 -16 20 -23z m-113 6 c11 -11 26 -17 35 -14 11 5 13 2 9 -10
-3 -9 -10 -16 -14 -16 -5 0 -10 -8 -13 -17 -3 -14 -7 -11 -15 12 -7 17 -17 38
-22 48 -13 23 -5 22 20 -3z m930 -16 c0 -8 6 -14 14 -14 15 0 26 -21 26 -48 0
-13 -5 -11 -20 8 -11 14 -26 37 -34 52 -12 23 -12 26 0 21 8 -3 14 -11 14 -19z
m2247 -6 c-3 -7 -5 -2 -5 12 0 14 2 19 5 13 2 -7 2 -19 0 -25z m-2155 10 c7
-7 20 -13 28 -13 14 0 39 -50 29 -59 -3 -3 -18 -2 -35 3 -22 6 -28 13 -26 29
2 12 -1 22 -6 22 -6 0 -12 7 -16 15 -7 18 8 20 26 3z m2018 -25 c0 -13 4 -22
9 -18 5 3 12 1 15 -4 9 -14 -6 -20 -29 -11 -13 4 -20 17 -21 38 -1 22 2 29 12
25 8 -3 14 -16 14 -30z m59 1 c20 -33 20 -54 2 -54 -5 0 -11 10 -14 23 -3 12
-9 32 -12 45 -11 33 0 27 24 -14z m-2942 10 c-3 -3 -12 -4 -19 -1 -8 3 -5 6 6
6 11 1 17 -2 13 -5z m493 -7 c0 -8 -7 -14 -15 -14 -8 0 -15 6 -15 14 0 7 7 13
15 13 8 0 15 -6 15 -13z m-412 -25 c5 -31 -15 -27 -21 3 -3 16 0 24 7 22 6 -2
12 -13 14 -25z m-428 -19 c0 -6 -9 -11 -20 -10 -22 1 -26 17 -8 35 13 13 28 0
28 -25z m1100 17 c0 -5 -2 -10 -4 -10 -3 0 -8 5 -11 10 -3 6 -1 10 4 10 6 0
11 -4 11 -10z m2395 0 c-3 -5 -10 -10 -16 -10 -5 0 -9 5 -9 10 0 6 7 10 16 10
8 0 12 -4 9 -10z m-3004 -17 c13 -17 13 -17 -6 -3 -11 8 -22 16 -24 17 -2 2 0
3 6 3 6 0 17 -8 24 -17z m133 -24 c-3 -5 -10 -7 -15 -3 -5 3 -7 10 -3 15 3 5
10 7 15 3 5 -3 7 -10 3 -15z m416 12 c0 -6 -4 -13 -10 -16 -5 -3 -10 -2 -10 4
0 5 -8 12 -17 14 -11 3 -7 5 10 6 15 0 27 -3 27 -8z m2317 -13 c-3 -8 -6 -5
-6 6 -1 11 2 17 5 13 3 -3 4 -12 1 -19z m-2483 -3 c20 -15 12 -20 -21 -16 -7
1 -13 -3 -13 -9 0 -6 -4 -8 -10 -5 -6 4 -5 13 3 25 14 24 16 24 41 5z m724 9
c-4 -3 -14 -7 -25 -9 -10 -2 -19 -4 -21 -4 -2 -1 3 -8 12 -16 14 -14 19 -14
52 0 45 19 73 19 99 0 17 -14 15 -15 -25 -9 -32 4 -51 1 -65 -10 -19 -14 -18
-15 25 -22 33 -5 55 -17 83 -44 47 -47 49 -63 5 -48 -26 9 -33 8 -44 -7 -10
-14 -22 -16 -61 -11 -26 4 -67 7 -90 8 -28 2 -43 7 -43 16 0 8 -19 -2 -44 -23
-40 -33 -44 -34 -39 -13 4 13 13 33 20 45 8 12 14 24 14 27 -5 31 3 48 27 60
15 8 40 26 56 40 16 14 38 26 49 26 11 0 18 -3 15 -6z m-1603 -34 c3 -5 -1
-10 -9 -10 -8 0 -18 5 -21 10 -3 6 1 10 9 10 8 0 18 -4 21 -10z m30 -20 c-3
-5 -11 -10 -16 -10 -6 0 -7 5 -4 10 3 6 11 10 16 10 6 0 7 -4 4 -10z m355 -7
c0 -8 -5 -13 -12 -11 -18 6 -21 25 -3 25 8 0 15 -7 15 -14z m2766 -10 c-7 -7
-26 7 -26 19 0 6 6 6 15 -2 9 -7 13 -15 11 -17z m-1037 -12 c12 -16 21 -35 20
-43 0 -9 -2 -9 -6 2 -3 8 -17 27 -31 43 -14 15 -21 27 -15 27 7 0 21 -13 32
-29z m1322 7 c3 -52 17 -79 38 -76 11 2 15 -3 13 -19 -2 -12 2 -24 8 -28 17
-10 11 -24 -10 -22 -14 1 -18 6 -14 19 4 13 1 16 -10 12 -11 -4 -16 -1 -16 10
0 16 -19 57 -32 66 -9 7 2 60 13 60 5 0 10 -10 10 -22z m-2954 -25 c17 -15 16
-26 -1 -20 -7 3 -19 0 -25 -6 -8 -8 -16 -5 -31 8 -19 17 -19 19 -4 37 18 18
24 17 61 -19z m168 17 c3 -5 17 -10 31 -10 13 0 24 -5 24 -11 0 -6 -13 -8 -32
-5 l-33 5 33 -11 c35 -12 41 -23 16 -32 -17 -6 -77 51 -68 66 7 11 21 10 29
-2z m2629 -5 c8 -9 12 -23 9 -32 -5 -14 -9 -13 -25 7 -30 37 -17 58 16 25z
m-2539 -5 c3 -5 -1 -10 -9 -10 -9 0 -16 5 -16 10 0 6 4 10 9 10 6 0 13 -4 16
-10z m2645 -19 c0 -17 -12 -41 -20 -41 -15 0 -21 33 -8 42 17 10 28 10 28 -1z
m-2204 -38 c-8 -8 -36 10 -36 25 0 13 3 12 20 -3 11 -10 18 -20 16 -22z m-406
7 c0 -5 -7 -10 -15 -10 -9 0 -12 -6 -9 -15 5 -11 2 -13 -10 -9 -19 7 -20 16
-4 32 15 15 38 16 38 2z m2240 0 c0 -5 -2 -10 -4 -10 -3 0 -8 5 -11 10 -3 6
-1 10 4 10 6 0 11 -4 11 -10z m-3075 -20 c3 -5 1 -10 -4 -10 -6 0 -11 5 -11
10 0 6 2 10 4 10 3 0 8 -4 11 -10z m530 -9 c-3 -6 -10 -9 -15 -6 -5 3 -13 -3
-19 -12 -6 -10 -11 -13 -11 -6 0 6 10 19 22 27 23 16 35 15 23 -3z m220 -1
c-3 -5 -11 -10 -16 -10 -6 0 -7 5 -4 10 3 6 11 10 16 10 6 0 7 -4 4 -10z
m-148 -32 c-3 -7 -5 -2 -5 12 0 14 2 19 5 13 2 -7 2 -19 0 -25z m2866 21 c26
-12 55 -55 44 -65 -3 -4 -14 -3 -24 1 -10 5 -21 7 -25 7 -5 -1 -8 3 -8 9 0 5
-5 7 -11 4 -6 -4 -13 2 -16 14 -3 12 -10 21 -15 21 -5 0 -6 5 -3 10 8 13 28
13 58 -1z m-2933 -25 c0 -8 -5 -12 -10 -9 -6 4 -8 11 -5 16 9 14 15 11 15 -7z
m249 -2 c7 -14 6 -18 -8 -18 -12 0 -17 6 -13 18 2 10 6 18 8 18 2 0 8 -8 13
-18z m504 4 c23 -18 22 -26 -4 -26 -17 0 -20 -4 -16 -22 5 -18 4 -19 -7 -7 -8
8 -16 26 -20 42 -5 22 -3 27 11 27 10 0 26 -7 36 -14z m2372 -6 c-3 -5 -11
-10 -16 -10 -6 0 -7 5 -4 10 3 6 11 10 16 10 6 0 7 -4 4 -10z m-3585 -42 c-29
-5 -48 -4 -55 4 -7 8 -6 9 5 6 8 -3 24 -2 35 2 11 4 29 4 40 1 14 -3 7 -7 -25
-13z m1557 0 c-3 -8 -6 -5 -6 6 -1 11 2 17 5 13 3 -3 4 -12 1 -19z m1923 12
c0 -5 -4 -10 -10 -10 -5 0 -10 5 -10 10 0 6 5 10 10 10 6 0 10 -4 10 -10z
m-2940 -10 c0 -5 -2 -10 -4 -10 -3 0 -8 5 -11 10 -3 6 -1 10 4 10 6 0 11 -4
11 -10z m1675 -49 c-7 -7 -45 39 -44 54 0 6 11 -3 25 -19 14 -15 22 -31 19
-35z m-688 27 c-3 -8 -6 -5 -6 6 -1 11 2 17 5 13 3 -3 4 -12 1 -19z m331 5
c-10 -2 -26 -2 -35 0 -10 3 -2 5 17 5 19 0 27 -2 18 -5z m1608 -11 c6 -4 11
-14 12 -22 1 -23 7 -44 15 -57 5 -8 3 -13 -7 -13 -9 0 -16 5 -16 10 0 6 -11
22 -24 35 -14 14 -20 27 -15 30 5 4 7 11 4 16 -7 11 15 12 31 1z m44 4 c0 -3
-4 -8 -10 -11 -5 -3 -10 -1 -10 4 0 6 5 11 10 11 6 0 10 -2 10 -4z m-2931 -25
c-13 -11 -26 -18 -28 -15 -7 7 21 34 36 34 10 0 8 -6 -8 -19z m93 -3 c-9 -9
-8 -16 5 -30 22 -25 9 -23 -27 4 -34 25 -39 38 -11 31 10 -3 22 0 26 7 4 6 10
9 13 5 3 -3 0 -11 -6 -17z m1108 -18 c138 -24 261 -58 274 -75 10 -14 21 -17
57 -11 32 5 57 2 85 -10 21 -9 40 -17 42 -19 7 -6 -28 -63 -42 -68 -17 -7 -56
2 -56 13 0 9 -76 42 -101 44 -8 1 -44 16 -80 33 -59 28 -102 41 -246 73 -63
14 -253 5 -337 -16 -62 -16 -186 -69 -196 -83 -3 -4 -19 -15 -37 -24 -17 -9
-38 -24 -48 -33 -9 -9 -18 -14 -21 -12 -2 3 16 22 40 42 60 49 195 112 281
132 39 8 84 19 100 24 36 9 208 4 285 -10z m-631 6 c-3 -3 -20 -8 -39 -11 -25
-4 -31 -3 -20 5 14 9 68 15 59 6z m2231 -3 c0 -5 -7 -16 -14 -26 -16 -20 -30
-8 -20 17 6 16 34 23 34 9z m-2322 -25 c-6 -18 -28 -21 -28 -4 0 9 7 16 16 16
9 0 14 -5 12 -12z m-918 -8 c0 -5 -4 -10 -9 -10 -6 0 -13 5 -16 10 -3 6 1 10
9 10 9 0 16 -4 16 -10z m595 0 c3 -5 2 -10 -4 -10 -5 0 -13 5 -16 10 -3 6 -2
10 4 10 5 0 13 -4 16 -10z m268 -15 c-3 -8 -9 -15 -14 -15 -10 0 -12 24 -3 33
11 11 24 -3 17 -18z m2055 -7 c19 -19 14 -30 -8 -18 -11 6 -20 15 -20 20 0 14
14 12 28 -2z m-3034 -30 c-15 -4 -34 -3 -43 2 -14 8 -14 9 2 10 10 0 16 4 13
9 -4 5 8 4 24 -2 l31 -12 -27 -7z m516 22 c0 -5 -2 -10 -4 -10 -3 0 -8 5 -11
10 -3 6 -1 10 4 10 6 0 11 -4 11 -10z m2425 -30 c3 -5 1 -10 -4 -10 -6 0 -11
5 -11 10 0 6 2 10 4 10 3 0 8 -4 11 -10z m131 -27 c3 -16 8 -34 10 -41 2 -8
-2 -12 -8 -10 -14 5 -30 78 -17 78 5 0 11 -12 15 -27z m340 0 c-7 -7 -26 7
-26 19 0 6 6 6 15 -2 9 -7 13 -15 11 -17z m-127 -12 c-3 -6 -10 -7 -18 -2 -7
5 -10 14 -6 21 9 14 29 -2 24 -19z m-3309 10 c0 -16 -28 -20 -34 -5 -4 9 1 14
14 14 11 0 20 -4 20 -9z m3265 -30 c-3 -12 -11 -21 -16 -21 -6 0 -8 3 -6 8 2
4 7 16 11 26 9 25 20 13 11 -13z m-3092 5 c7 -17 -39 -40 -49 -25 -4 7 -10 6
-19 -1 -9 -8 -14 -6 -18 9 -3 15 1 21 17 24 43 9 64 7 69 -7z m3277 -12 c0
-22 -2 -25 -15 -14 -12 10 -15 10 -16 -1 0 -10 -2 -10 -6 -2 -4 12 16 42 30
43 4 0 7 -12 7 -26z m-3445 -4 c-3 -5 -13 -10 -21 -10 -8 0 -12 5 -9 10 3 6
13 10 21 10 8 0 12 -4 9 -10z m3212 -3 c-3 -7 1 -21 9 -31 12 -17 14 -17 20
-3 8 22 24 12 24 -15 0 -17 -4 -20 -30 -15 -16 4 -32 2 -35 -3 -7 -12 -25 -3
-25 12 0 5 7 8 15 4 8 -3 15 -1 15 4 0 5 -9 11 -19 15 -13 4 -18 12 -14 21 3
8 12 13 19 10 8 -3 14 -1 14 4 0 6 3 10 6 10 3 0 4 -6 1 -13z m-3159 -29 c11
-14 10 -16 -7 -11 -12 3 -17 11 -14 19 3 8 6 14 7 12 1 -2 7 -11 14 -20z m-64
-12 c8 -12 8 -19 -2 -25 -8 -5 -15 -20 -15 -34 -2 -19 -5 -23 -14 -15 -7 6
-13 16 -13 22 0 6 -6 23 -14 38 -8 15 -11 29 -8 32 11 11 56 -1 66 -18z m614
12 c-3 -7 -11 -13 -18 -13 -7 0 -15 6 -17 13 -3 7 4 12 17 12 13 0 20 -5 18
-12z m-476 -55 c9 -10 21 -30 27 -46 6 -15 18 -27 28 -27 18 -1 75 -29 60 -30
-5 0 -28 5 -53 11 -33 9 -44 16 -44 31 0 10 -7 21 -15 24 -8 4 -15 12 -15 20
0 19 -29 18 -51 -2 -16 -14 -18 -14 -29 5 -10 20 -9 21 14 15 25 -6 32 2 27
29 -2 11 31 -8 51 -30z m267 -23 c10 0 26 -9 36 -20 17 -19 9 -29 -11 -12 -5
5 -25 15 -44 22 -38 15 -59 36 -60 60 0 9 12 3 31 -17 16 -18 38 -33 48 -33z
m2581 11 c0 -35 -14 -16 -16 21 -1 21 1 26 7 17 5 -8 9 -25 9 -38z m-2133 10
c-4 -19 -2 -31 6 -34 7 -2 10 -7 7 -10 -3 -3 -13 1 -24 8 -13 10 -16 20 -11
32 5 10 7 21 7 26 -1 4 3 7 9 7 7 0 9 -11 6 -29z m1863 -1 c0 -5 -2 -10 -4
-10 -3 0 -8 5 -11 10 -3 6 -1 10 4 10 6 0 11 -4 11 -10z m580 -27 c0 -7 -7
-16 -15 -19 -18 -7 -20 -35 -3 -52 9 -9 9 -12 -3 -12 -26 0 -38 20 -28 47 8
21 7 24 -6 19 -8 -3 -23 3 -32 13 -10 10 -25 21 -33 25 -8 3 0 4 18 1 17 -2
32 -1 32 4 0 5 16 4 35 -2 19 -6 35 -16 35 -24z m-2550 -83 c5 -74 3 -80 -17
-91 -24 -13 -43 -5 -43 18 0 13 3 13 15 3 22 -18 26 3 17 88 -5 40 -6 75 -3
77 14 14 27 -24 31 -95z m-180 80 c13 -8 13 -10 -2 -10 -9 0 -20 5 -23 10 -8
13 5 13 25 0z m356 -1 c7 -12 -15 -31 -28 -23 -4 3 -8 12 -8 20 0 17 26 19 36
3z m-891 -9 c3 -5 1 -10 -4 -10 -6 0 -11 5 -11 10 0 6 2 10 4 10 3 0 8 -4 11
-10z m280 -30 c3 -5 -1 -10 -9 -10 -9 0 -16 5 -16 10 0 6 4 10 9 10 6 0 13 -4
16 -10z m345 -5 c17 -20 -7 -20 -34 0 -19 15 -19 15 1 15 11 0 26 -7 33 -15z
m-383 -47 c-3 -8 -6 -5 -6 6 -1 11 2 17 5 13 3 -3 4 -12 1 -19z m203 2 c0 -5
-7 -7 -15 -4 -8 4 -15 8 -15 10 0 2 7 4 15 4 8 0 15 -4 15 -10z m386 -67 c-8
-8 -36 10 -36 25 0 13 3 12 20 -3 11 -10 18 -20 16 -22z m2304 2 c0 -8 -4 -15
-10 -15 -5 0 -7 7 -4 15 4 8 8 15 10 15 2 0 4 -7 4 -15z m190 1 c0 -3 -4 -8
-10 -11 -5 -3 -10 -1 -10 4 0 6 5 11 10 11 6 0 10 -2 10 -4z m-2573 -53 c-3
-10 -5 -2 -5 17 0 19 2 27 5 18 2 -10 2 -26 0 -35z m78 7 c3 -5 2 -10 -4 -10
-5 0 -13 5 -16 10 -3 6 -2 10 4 10 5 0 13 -4 16 -10z m2440 -9 c-3 -6 -14 -11
-23 -11 -15 1 -15 2 2 15 21 16 32 13 21 -4z m-2710 -1 c3 -5 1 -10 -4 -10 -6
0 -11 5 -11 10 0 6 2 10 4 10 3 0 8 -4 11 -10z m54 -32 l14 -23 -24 20 c-13
11 -26 21 -28 22 -2 2 2 3 10 3 8 0 20 -10 28 -22z m-99 1 c0 -6 -6 -17 -14
-25 -11 -10 -15 -11 -19 -1 -2 6 -2 18 1 25 5 15 32 16 32 1z m295 -19 c3 -5
1 -10 -4 -10 -6 0 -11 5 -11 10 0 6 2 10 4 10 3 0 8 -4 11 -10z m2445 -20
c-18 -11 -40 -1 -33 16 4 10 10 11 25 3 16 -8 18 -13 8 -19z m226 -29 c-4 -5
0 -12 6 -14 9 -4 7 -6 -3 -6 -9 -1 -22 6 -29 14 -10 13 -9 15 9 15 12 0 20 -4
17 -9z m-2867 -15 c9 -11 7 -15 -9 -19 -11 -3 -20 -4 -20 -2 0 2 -3 10 -6 19
-8 20 19 22 35 2z m2717 -13 c-10 -10 -19 5 -10 18 6 11 8 11 12 0 2 -7 1 -15
-2 -18z m-2441 -13 c-1 -11 -7 -26 -15 -33 -8 -8 -11 -8 -6 0 3 6 1 13 -6 15
-15 5 -3 38 15 38 8 0 13 -9 12 -20z m183 -4 c-10 -7 -18 -21 -18 -30 0 -9 -8
-16 -20 -16 -11 0 -20 7 -20 15 0 8 6 15 14 15 8 0 16 7 20 15 3 8 13 15 23
15 17 -1 17 -1 1 -14z m2342 -1 c0 -8 -4 -15 -10 -15 -5 0 -10 7 -10 15 0 8 5
15 10 15 6 0 10 -7 10 -15z m-338 -27 c-9 -9 -12 -7 -12 12 0 19 3 21 12 12 9
-9 9 -15 0 -24z m-1937 1 c4 -6 5 -12 2 -15 -7 -7 -37 7 -37 17 0 13 27 11 35
-2z m1805 -20 c0 -6 -4 -7 -10 -4 -5 3 -10 11 -10 16 0 6 5 7 10 4 6 -3 10
-11 10 -16z m23 6 c-3 -9 -8 -14 -10 -11 -3 3 -2 9 2 15 9 16 15 13 8 -4z
m-2186 -17 c-3 -8 -6 -5 -6 6 -1 11 2 17 5 13 3 -3 4 -12 1 -19z m2533 12 c0
-5 -5 -10 -11 -10 -5 0 -7 5 -4 10 3 6 8 10 11 10 2 0 4 -4 4 -10z m250 -5 c0
-8 -3 -15 -6 -15 -3 0 -12 7 -20 15 -14 13 -13 15 5 15 12 0 21 -6 21 -15z
m-2650 -10 c1 11 30 -25 30 -36 0 -5 -11 2 -25 15 -14 13 -25 27 -25 32 0 5 5
2 10 -6 5 -8 10 -10 10 -5z m198 -19 c-16 -17 -28 -11 -28 15 0 17 3 18 20 9
16 -9 18 -13 8 -24z m1927 -56 c10 -11 14 -20 10 -20 -5 0 -4 -5 3 -12 7 -7
12 -16 12 -20 0 -10 -49 24 -50 34 0 4 -13 21 -30 39 -28 31 -29 34 -12 52 16
18 17 18 33 -17 8 -19 24 -45 34 -56z m485 20 c-8 -5 -10 -18 -5 -40 5 -23 3
-35 -6 -41 -22 -14 -35 -10 -15 4 18 13 17 15 -9 41 -22 22 -25 30 -14 36 7 5
17 6 22 3 4 -3 11 5 14 17 5 20 7 21 16 5 6 -12 6 -20 -3 -25z m-640 5 c10
-12 10 -15 -4 -15 -9 0 -16 7 -16 15 0 8 2 15 4 15 2 0 9 -7 16 -15z m-62 -26
c-3 -8 -7 -3 -11 10 -4 17 -3 21 5 13 5 -5 8 -16 6 -23z m347 11 c3 -5 1 -10
-4 -10 -6 0 -11 5 -11 10 0 6 2 10 4 10 3 0 8 -4 11 -10z m263 -12 c2 -9 -3
-18 -10 -20 -8 -4 -13 3 -13 18 0 26 18 27 23 2z m-1899 -7 c13 -8 13 -12 1
-26 -13 -16 -15 -16 -27 1 -12 16 -13 16 -13 1 0 -18 -15 -23 -24 -8 -19 30
29 53 63 32z m1569 -14 c17 -13 29 -26 26 -29 -9 -10 -64 23 -64 38 0 18 1 18
38 -9z m150 -2 c12 -12 -13 -24 -36 -19 -34 8 -36 10 -27 24 6 10 52 6 63 -5z
m-2436 -8 c-14 -16 -4 -87 12 -93 7 -3 10 -24 7 -57 l-4 -52 -18 75 c-27 107
-25 132 10 139 2 1 -1 -5 -7 -12z m2473 3 c3 -5 1 -10 -4 -10 -6 0 -11 5 -11
10 0 6 2 10 4 10 3 0 8 -4 11 -10z m-3372 -37 c-7 -2 -21 -2 -30 0 -10 3 -4 5
12 5 17 0 24 -2 18 -5z m3424 -13 c8 -12 9 -21 3 -25 -6 -3 -10 1 -10 10 0 12
-6 15 -20 10 -15 -5 -18 -3 -14 9 8 22 27 20 41 -4z m-287 -18 c0 -15 -2 -15
-10 -2 -13 20 -13 33 0 25 6 -3 10 -14 10 -23z m230 -14 c0 -5 -4 -8 -10 -8
-5 0 -10 10 -10 23 0 18 2 19 10 7 5 -8 10 -18 10 -22z m-150 7 c0 -12 -19
-12 -23 0 -4 9 -1 12 9 8 7 -3 14 -7 14 -8z m104 6 c3 -5 -1 -14 -8 -20 -12
-10 -14 -9 -11 6 2 10 4 19 4 21 2 5 10 2 15 -7z m306 -46 c8 -9 8 -15 2 -15
-18 0 -42 12 -42 21 0 14 26 10 40 -6z m-303 -31 c-3 -3 -12 -4 -19 -1 -8 3
-5 6 6 6 11 1 17 -2 13 -5z m-179 -26 c-2 -6 -10 -14 -16 -16 -7 -2 -10 2 -6
12 7 18 28 22 22 4z m49 6 c-3 -3 -12 -4 -19 -1 -8 3 -5 6 6 6 11 1 17 -2 13
-5z m-387 -14 c0 -5 -4 -10 -10 -10 -5 0 -10 5 -10 10 0 6 5 10 10 10 6 0 10
-4 10 -10z m455 0 c4 -6 12 -7 18 -4 8 4 7 2 -1 -7 -10 -11 -14 -11 -21 -1 -4
8 -15 10 -26 6 -13 -5 -16 -4 -11 4 9 15 33 16 41 2z m-485 -10 c0 -5 -7 -7
-15 -4 -8 4 -15 8 -15 10 0 2 7 4 15 4 8 0 15 -4 15 -10z m300 0 c0 -5 -5 -10
-11 -10 -5 0 -7 5 -4 10 3 6 8 10 11 10 2 0 4 -4 4 -10z m260 0 c0 -5 -2 -10
-4 -10 -3 0 -8 5 -11 10 -3 6 -1 10 4 10 6 0 11 -4 11 -10z m-464 -45 c-7 -19
-43 -8 -49 15 -3 14 1 20 17 22 23 4 41 -16 32 -37z m327 25 c3 -11 1 -20 -4
-20 -5 0 -9 9 -9 20 0 11 2 20 4 20 2 0 6 -9 9 -20z m-199 -5 c-5 -11 -74 -16
-74 -5 0 14 14 19 45 18 20 -1 31 -6 29 -13z m146 -20 c20 -24 4 -29 -19 -6
-14 14 -17 21 -7 21 7 0 19 -7 26 -15z m-1895 -23 c-3 -3 -11 0 -18 7 -9 10
-8 11 6 5 10 -3 15 -9 12 -12z m1319 2 c3 -8 2 -12 -4 -9 -6 3 -10 10 -10 16
0 14 7 11 14 -7z m644 -26 c-7 -10 -16 -19 -20 -19 -5 1 -15 1 -23 1 -8 0 -15
7 -15 16 0 12 6 15 25 10 19 -5 25 -2 25 9 0 9 5 13 11 10 7 -5 6 -13 -3 -27z
m-528 12 c0 -5 -5 -10 -11 -10 -5 0 -7 5 -4 10 3 6 8 10 11 10 2 0 4 -4 4 -10z
m-1170 -10 c0 -5 -5 -10 -11 -10 -5 0 -7 5 -4 10 3 6 8 10 11 10 2 0 4 -4 4
-10z m1210 -11 c0 -6 -4 -7 -10 -4 -5 3 -10 11 -10 16 0 6 5 7 10 4 6 -3 10
-11 10 -16z m205 2 c-3 -6 -11 -11 -16 -11 -5 0 -4 6 3 14 14 16 24 13 13 -3z
m-1338 -33 c-3 -7 -5 -2 -5 12 0 14 2 19 5 13 2 -7 2 -19 0 -25z m1528 22 c3
-5 1 -10 -4 -10 -6 0 -11 5 -11 10 0 6 2 10 4 10 3 0 8 -4 11 -10z m-1199 -22
c-10 -5 -25 -6 -34 -2 -14 6 -13 8 8 14 31 9 48 0 26 -12z m1039 12 c-3 -5
-10 -10 -16 -10 -5 0 -9 5 -9 10 0 6 7 10 16 10 8 0 12 -4 9 -10z m50 0 c3 -5
1 -10 -4 -10 -6 0 -11 5 -11 10 0 6 2 10 4 10 3 0 8 -4 11 -10z m-161 -6 c9
-3 14 -10 11 -15 -7 -10 -35 0 -35 12 0 11 3 11 24 3z m206 -20 c0 -16 -16
-19 -25 -4 -8 13 4 32 16 25 5 -4 9 -13 9 -21z m49 -1 c-11 -13 -11 -17 -1
-20 20 -7 13 -23 -11 -23 -12 0 -34 -11 -49 -25 -15 -14 -32 -25 -38 -25 -5 0
-10 -7 -10 -15 0 -8 -4 -15 -9 -15 -13 0 -21 27 -15 48 5 14 4 15 -5 2 -6 -8
-11 -12 -11 -8 0 3 -3 14 -7 24 -4 12 -3 15 5 10 7 -4 12 -2 12 5 0 10 3 10
12 1 19 -19 44 -14 69 13 13 13 30 25 37 25 6 0 12 5 12 10 0 6 5 10 11 10 8
0 7 -6 -2 -17z m-3064 -19 c19 -15 18 -16 -15 -9 -44 9 -63 25 -29 25 13 0 33
-8 44 -16z m3130 -24 c5 -17 4 -22 -3 -15 -5 6 -13 21 -17 35 -5 17 -4 22 3
15 5 -5 13 -21 17 -35z m-2051 0 c11 -24 12 -30 1 -30 -7 0 -15 9 -18 21 -3
12 -10 18 -16 14 -7 -3 -8 0 -5 9 9 24 21 19 38 -14z m167 7 c-6 -6 -11 -20
-12 -31 0 -20 -1 -20 -11 1 -8 16 -7 25 3 36 8 8 18 13 22 10 5 -3 4 -10 -2
-16z m1439 13 c0 -5 -4 -10 -10 -10 -5 0 -10 5 -10 10 0 6 5 10 10 10 6 0 10
-4 10 -10z m210 -11 c-9 -16 -8 -25 6 -40 9 -10 15 -21 13 -24 -3 -2 -17 9
-31 25 -18 20 -22 30 -12 30 8 0 14 7 14 15 0 8 5 15 10 15 7 0 7 -7 0 -21z
m-2840 -5 c0 -2 -7 -4 -15 -4 -8 0 -15 4 -15 10 0 5 7 7 15 4 8 -4 15 -8 15
-10z m2678 -7 c2 -9 -2 -17 -8 -17 -6 0 -8 5 -4 11 3 6 0 16 -7 21 -12 8 -11
9 1 5 8 -2 16 -11 18 -20z m482 13 c0 -5 -5 -10 -11 -10 -5 0 -7 5 -4 10 3 6
8 10 11 10 2 0 4 -4 4 -10z m-352 -40 c14 -13 14 -15 -2 -18 -9 -2 -24 2 -32
9 -12 10 -13 9 -8 -5 8 -20 -9 -21 -26 -1 -10 12 -8 16 14 25 14 5 26 15 27
22 0 9 3 8 6 -2 4 -8 13 -21 21 -30z m514 18 c-8 -8 -18 -8 -34 -1 -21 9 -20
10 11 11 25 0 31 -2 23 -10z m-1597 -8 c3 -5 2 -10 -4 -10 -5 0 -13 5 -16 10
-3 6 -2 10 4 10 5 0 13 -4 16 -10z m1290 0 c3 -5 1 -10 -4 -10 -6 0 -11 5 -11
10 0 6 2 10 4 10 3 0 8 -4 11 -10z m-3026 -31 c18 -11 31 -22 29 -25 -6 -6
-88 29 -88 39 0 13 24 7 59 -14z m2673 -1 c18 18 27 14 21 -7 -3 -10 0 -22 6
-25 6 -4 11 -15 11 -24 0 -12 -3 -13 -12 -4 -7 7 -20 12 -30 12 -11 0 -23 11
-28 26 -14 35 -13 39 5 24 12 -10 19 -10 27 -2z m342 -36 c-9 -8 -13 -21 -10
-28 6 -16 -3 -18 -24 -4 -12 8 -12 10 -1 10 10 0 11 3 3 13 -12 14 -4 32 18
39 22 7 31 -13 14 -30z m-3078 9 c-3 -5 6 -20 21 -35 19 -20 22 -26 10 -26
-20 0 -51 45 -42 60 3 5 8 10 11 10 3 0 3 -4 0 -9z m3005 -39 c-11 -8 -21 -21
-21 -28 0 -8 -8 -14 -17 -14 -14 0 -15 2 -5 9 7 4 12 12 11 17 -4 21 2 34 14
32 6 -2 11 3 9 11 -3 12 -1 12 14 1 15 -13 15 -15 -5 -28z m-97 -7 c-4 -8 -8
-15 -10 -15 -2 0 -4 7 -4 15 0 8 4 15 10 15 5 0 7 -7 4 -15z m-2238 -82 c-14
-26 -15 -27 -16 -5 0 12 6 31 13 42 19 31 22 -2 3 -37z m328 1 c-15 -19 -29
-32 -32 -30 -8 8 39 76 49 70 5 -3 -3 -21 -17 -40z m1966 26 c0 -5 -2 -10 -4
-10 -3 0 -8 5 -11 10 -3 6 -1 10 4 10 6 0 11 -4 11 -10z m-2318 -92 c-8 -8 -9
-4 -5 13 4 13 8 18 11 10 2 -7 -1 -18 -6 -23z m-635 -124 c-3 -3 -12 -4 -19
-1 -8 3 -5 6 6 6 11 1 17 -2 13 -5z m19 -66 c5 -7 9 -22 9 -33 0 -11 6 -26 15
-34 9 -8 5 -7 -10 2 -14 9 -24 21 -22 27 1 6 -2 9 -7 5 -9 -5 -31 23 -31 39 0
11 38 6 46 -6z m339 -8 c3 -5 1 -10 -4 -10 -6 0 -11 5 -11 10 0 6 2 10 4 10 3
0 8 -4 11 -10z m325 -5 c10 -11 9 -18 -4 -31 -19 -19 -12 -36 11 -27 11 4 14
3 9 -5 -9 -16 -33 -15 -39 1 -3 9 -9 7 -24 -5 -26 -24 -33 -23 -33 6 0 27 35
76 55 76 7 0 18 -7 25 -15z m-50 -339 c0 -2 -7 -7 -16 -10 -8 -3 -12 -2 -9 4
6 10 25 14 25 6z m-50 -16 c0 -5 -10 -10 -22 -9 -22 0 -22 1 -3 9 11 5 21 9
23 9 1 1 2 -3 2 -9z m210 -40 c0 -5 -2 -10 -4 -10 -3 0 -8 5 -11 10 -3 6 -1
10 4 10 6 0 11 -4 11 -10z m-562 -25 c-8 -19 -8 -28 2 -40 17 -21 5 -31 -15
-12 -18 19 -19 31 -3 57 18 28 30 25 16 -5z m72 21 c0 -3 -4 -8 -10 -11 -5 -3
-10 -1 -10 4 0 6 5 11 10 11 6 0 10 -2 10 -4z m117 -18 c-3 -8 -6 -5 -6 6 -1
11 2 17 5 13 3 -3 4 -12 1 -19z m270 -5 c4 3 9 -11 10 -31 l2 -37 -15 28 c-8
15 -21 27 -28 27 -16 0 -38 24 -30 33 4 3 17 -1 30 -9 13 -9 27 -14 31 -11z
m-502 -2 c10 -17 -12 -21 -25 -6 -10 12 -10 15 3 15 9 0 18 -4 22 -9z m255
-31 c0 -5 -4 -10 -10 -10 -5 0 -10 5 -10 10 0 6 5 10 10 10 6 0 10 -4 10 -10z
m110 6 c0 -3 -4 -8 -10 -11 -5 -3 -10 -1 -10 4 0 6 5 11 10 11 6 0 10 -2 10
-4z m-143 -27 c-4 -15 -2 -19 10 -15 42 17 60 17 60 2 0 -9 -4 -16 -9 -16 -5
0 -2 -7 6 -16 9 -8 16 -19 16 -24 0 -19 -18 -19 -35 0 -10 11 -23 16 -29 12
-6 -4 -20 -8 -31 -9 -11 0 -31 -4 -45 -8 -22 -6 -23 -5 -9 7 20 16 13 38 -12
38 -10 0 -19 7 -19 15 0 11 5 12 25 5 15 -6 26 -6 30 1 4 5 11 7 16 4 5 -4 9
1 9 9 0 9 5 16 11 16 7 0 9 -9 6 -21z m-189 -49 c-9 -14 -16 -16 -25 -8 -18
15 -16 26 5 31 26 6 33 -2 20 -23z m-113 11 c3 -5 1 -12 -5 -16 -5 -3 -10 1
-10 9 0 18 6 21 15 7z m600 -11 c3 -5 2 -10 -4 -10 -5 0 -13 5 -16 10 -3 6 -2
10 4 10 5 0 13 -4 16 -10z m-710 -20 c-3 -5 -11 -10 -16 -10 -6 0 -7 5 -4 10
3 6 11 10 16 10 6 0 7 -4 4 -10z m117 -12 c-7 -7 -12 -8 -12 -2 0 14 12 26 19
19 2 -3 -1 -11 -7 -17z m-32 -8 c9 -16 8 -18 -5 -14 -8 4 -15 12 -15 20 0 20
7 17 20 -6z m-116 -12 c-4 -6 1 -8 16 -3 19 6 21 5 11 -6 -6 -8 -18 -23 -25
-33 -19 -27 -50 -14 -44 19 3 13 0 26 -6 28 -6 2 4 4 22 5 20 0 30 -3 26 -10z
m143 -20 c-3 -8 -6 -5 -6 6 -1 11 2 17 5 13 3 -3 4 -12 1 -19z m69 0 c-4 -28
-17 -27 -28 1 -6 17 -3 21 12 21 15 0 19 -6 16 -22z m64 -7 c-15 -30 -30 -35
-17 -6 7 14 16 25 20 25 4 0 3 -9 -3 -19z m36 -16 c1 -14 -2 -25 -7 -25 -10 0
-12 33 -2 43 3 4 7 7 7 7 1 0 2 -11 2 -25z m97 5 c3 -11 1 -20 -4 -20 -5 0 -9
5 -9 11 0 6 -9 8 -20 4 -11 -3 -24 -3 -30 0 -17 11 0 25 29 25 20 0 30 -6 34
-20z m-371 -52 c-6 -6 -7 0 -4 19 5 21 7 23 10 9 2 -10 0 -22 -6 -28z m788 33
c0 -5 -7 -11 -15 -15 -15 -5 -20 5 -8 17 9 10 23 9 23 -2z m-586 -26 c3 -8 14
-15 25 -15 11 0 23 -5 27 -11 5 -9 -1 -10 -21 -5 -36 9 -73 46 -46 46 5 0 11
-7 15 -15z m144 3 c-6 -18 -25 -20 -31 -3 -5 10 0 15 14 15 12 0 19 -5 17 -12z
m230 0 c-2 -8 9 -14 25 -16 29 -4 36 -16 13 -25 -8 -3 -17 -1 -20 6 -3 8 -10
6 -20 -7 -15 -19 -16 -19 -16 10 0 17 3 34 7 37 10 10 13 8 11 -5z m-644 -23
c-4 -8 -10 -12 -15 -9 -11 6 -2 24 11 24 5 0 7 -7 4 -15z m601 -5 c19 -8 19
-9 -2 -9 -13 -1 -26 -1 -30 -2 -4 0 -9 4 -11 10 -4 13 15 13 43 1z m-429 -25
c-20 -15 -36 -19 -36 -10 0 5 38 23 50 24 3 0 -4 -6 -14 -14z m420 -32 c-6 -6
-46 20 -46 30 0 4 11 0 25 -9 14 -9 24 -19 21 -21z m-347 4 c8 -10 4 -19 -19
-35 -17 -13 -31 -18 -35 -12 -4 6 -11 8 -16 5 -10 -7 -1 24 14 43 12 16 42 15
56 -1z m381 -7 c0 -5 -4 -10 -10 -10 -5 0 -10 5 -10 10 0 6 5 10 10 10 6 0 10
-4 10 -10z m-270 -51 c13 -7 13 -8 0 -8 -8 0 -26 6 -40 15 l-25 15 25 -7 c14
-3 32 -10 40 -15z m150 -54 c0 -18 -15 -26 -34 -19 -23 9 -20 24 5 24 13 0 18
4 13 12 -4 7 -3 8 4 4 7 -4 12 -13 12 -21z m-65 -6 c11 -17 -1 -21 -15 -4 -8
9 -8 15 -2 15 6 0 14 -5 17 -11z m108 -1 c4 -10 8 -9 16 2 5 8 13 11 17 7 4
-3 1 -13 -5 -21 -8 -10 -9 -16 -1 -21 5 -3 10 -12 10 -18 0 -7 -7 -4 -15 7 -7
10 -18 15 -24 11 -7 -4 -11 3 -12 17 l0 23 -9 -22 c-5 -13 -12 -23 -15 -23 -4
0 -4 3 -2 8 2 4 7 15 10 25 7 20 23 22 30 5z m-463 -23 c0 -8 -2 -15 -4 -15
-2 0 -6 7 -10 15 -3 8 -1 15 4 15 6 0 10 -7 10 -15z m-56 -31 c3 -8 1 -14 -3
-14 -5 0 -16 -3 -24 -6 -13 -5 -31 29 -20 39 8 9 42 -5 47 -19z m263 -16 c-3
-7 -5 -2 -5 12 0 14 2 19 5 13 2 -7 2 -19 0 -25z m401 2 c-1 -16 5 -36 12 -45
16 -19 -2 -45 -31 -45 -11 0 -19 -7 -19 -15 0 -8 -4 -15 -10 -15 -5 0 -10 4
-10 9 0 13 -94 5 -98 -9 -5 -13 -32 6 -32 22 0 5 -13 23 -30 41 -20 22 -26 34
-17 39 7 4 13 3 15 -1 2 -5 15 -3 29 4 30 16 54 10 46 -11 -3 -8 -2 -22 1 -31
5 -12 9 -14 18 -5 21 21 32 13 13 -8 -21 -24 -8 -26 31 -5 16 8 43 15 59 16
21 1 24 3 10 6 -11 3 -24 9 -30 15 -7 6 -5 8 4 6 8 -2 17 10 23 30 11 40 17
41 16 2z m55 23 c-7 -2 -21 -2 -30 0 -10 3 -4 5 12 5 17 0 24 -2 18 -5z m-583
-39 c0 -14 -3 -14 -15 -4 -8 7 -15 14 -15 16 0 2 7 4 15 4 8 0 15 -7 15 -16z
m193 -10 c24 -32 19 -37 -16 -19 -16 8 -29 10 -33 4 -3 -5 -10 -7 -15 -3 -12
7 18 44 35 44 6 0 19 -12 29 -26z m-143 6 c0 -5 -7 -10 -15 -10 -8 0 -15 5
-15 10 0 6 7 10 15 10 8 0 15 -4 15 -10z m-52 -53 c2 -9 -1 -17 -7 -17 -6 0
-11 6 -11 14 0 8 -6 17 -12 20 -7 3 -4 5 7 3 11 -1 21 -10 23 -20z m-130 -37
c21 -1 24 -3 11 -10 -16 -10 -59 -3 -59 9 0 14 15 22 18 12 2 -6 16 -11 30
-11z m784 5 c19 7 33 -24 18 -39 -7 -7 -10 -7 -10 1 0 16 -58 35 -63 20 -2 -8
-5 -8 -11 1 -5 8 1 15 16 21 13 5 25 5 29 -1 3 -5 13 -6 21 -3z m-695 -61 c-3
-3 -12 -4 -19 -1 -8 3 -5 6 6 6 11 1 17 -2 13 -5z m-17 -54 c0 -5 -7 -10 -15
-10 -8 0 -15 5 -15 10 0 6 7 10 15 10 8 0 15 -4 15 -10z m340 -42 c0 -16 -3
-19 -11 -11 -6 6 -8 16 -5 22 11 17 16 13 16 -11z m-58 -30 c-5 -34 -15 -36
-30 -4 -6 14 -21 27 -34 29 -13 3 -3 4 22 3 44 -1 46 -2 42 -28z m38 -30 c0
-13 -23 -5 -28 10 -2 7 2 10 12 6 9 -3 16 -11 16 -16z m-36 -57 c3 -5 -1 -12
-10 -15 -22 -9 -24 -8 -24 9 0 16 25 21 34 6z"/>
<path d="M1650 3656 c0 -8 8 -13 18 -11 9 1 30 -4 45 -12 32 -16 87 -9 87 12
0 19 -23 25 -91 25 -44 0 -59 -4 -59 -14z"/>
<path d="M536 845 c-4 -12 0 -19 13 -22 11 -3 22 -12 25 -22 2 -9 4 0 3 19 -2
38 -29 54 -41 25z"/>
<path d="M2007 3983 c6 -17 22 -33 33 -33 3 0 6 11 6 25 2 20 -3 25 -22 25
-18 0 -22 -4 -17 -17z"/>
<path d="M3760 3770 c0 -5 9 -14 20 -20 22 -12 27 -1 8 18 -14 14 -28 16 -28
2z"/>
<path d="M3881 3296 c-10 -11 -8 -17 6 -24 13 -8 24 -5 44 9 14 10 29 16 33
12 3 -3 6 -2 6 4 0 16 -76 15 -89 -1z"/>
<path d="M3880 3231 c0 -5 -8 -12 -17 -14 -15 -4 -15 -6 5 -12 12 -4 22 -11
22 -16 0 -18 19 -9 25 12 5 14 2 25 -6 30 -18 11 -29 11 -29 0z"/>
<path d="M3950 3204 c0 -13 18 -39 24 -34 2 3 -2 14 -10 24 -8 11 -14 16 -14
10z"/>
<path d="M2493 3178 c-22 -28 -23 -36 -6 -32 13 4 24 -6 38 -32 18 -33 20 -34
28 -16 6 13 4 31 -8 56 -18 37 -35 45 -52 24z"/>
<path d="M3630 3156 c0 -23 2 -24 31 -16 40 12 49 20 21 20 -11 0 -24 5 -27
10 -11 18 -25 10 -25 -14z"/>
<path d="M3870 3149 c0 -6 7 -9 15 -5 8 3 14 0 12 -6 -1 -5 5 -12 13 -13 10
-2 17 5 17 16 1 15 -5 19 -28 19 -16 0 -29 -5 -29 -11z"/>
<path d="M3611 3114 c0 -11 3 -14 6 -6 3 7 2 16 -1 19 -3 4 -6 -2 -5 -13z"/>
<path d="M3676 3091 c-8 -13 23 -23 47 -15 16 5 17 8 6 15 -18 11 -46 11 -53
0z"/>
<path d="M2450 3047 c0 -12 9 -28 20 -35 11 -7 17 -18 14 -27 -5 -11 -2 -13
10 -9 22 8 20 57 -2 77 -26 23 -42 21 -42 -6z"/>
<path d="M3748 2963 c6 -2 18 -2 25 0 6 3 1 5 -13 5 -14 0 -19 -2 -12 -5z"/>
<path d="M3982 2769 c-10 -15 -10 -24 -2 -34 8 -10 7 -14 -2 -18 -10 -4 -10
-8 2 -16 12 -9 11 -11 -8 -11 -13 0 -22 -5 -20 -11 2 -6 7 -10 11 -10 4 1 13
1 21 1 10 0 14 16 15 60 0 33 -1 60 -2 60 -1 0 -8 -9 -15 -21z"/>
<path d="M3794 2719 c-3 -6 -17 -9 -31 -6 -17 3 -27 -2 -35 -16 -8 -15 -8 -22
0 -25 6 -2 8 -10 5 -18 -4 -10 3 -14 23 -14 26 1 27 2 12 14 -34 25 -22 44 26
40 39 -3 43 -1 39 16 -6 22 -28 27 -39 9z"/>
<path d="M3825 2640 c3 -5 18 -10 32 -10 32 0 28 5 -10 14 -19 4 -26 3 -22 -4z"/>
<path d="M3931 2641 c-8 -5 -12 -18 -9 -29 4 -14 0 -22 -14 -25 -27 -7 -15
-24 17 -24 25 0 29 16 11 46 -7 11 -4 13 15 8 28 -7 55 6 45 22 -8 13 -45 14
-65 2z"/>
<path d="M3903 2533 c-25 -10 -12 -23 22 -23 26 0 35 -4 35 -16 0 -14 -3 -14
-15 -4 -9 8 -15 9 -15 2 0 -19 21 -25 35 -11 7 8 16 24 20 37 6 20 3 22 -32
21 -21 0 -44 -3 -50 -6z"/>
<path d="M3560 2480 c0 -5 4 -10 9 -10 6 0 13 5 16 10 3 6 -1 10 -9 10 -9 0
-16 -4 -16 -10z"/>
<path d="M3700 2470 c0 -5 4 -10 9 -10 6 0 13 5 16 10 3 6 -1 10 -9 10 -9 0
-16 -4 -16 -10z"/>
<path d="M2101 2444 c-18 -21 -6 -30 14 -11 8 9 15 18 15 21 0 11 -15 5 -29
-10z"/>
<path d="M3567 2438 c6 -11 51 -10 58 1 3 5 -10 9 -29 8 -19 -1 -32 -5 -29 -9z"/>
<path d="M3870 2429 c0 -6 -8 -9 -19 -6 -21 5 -57 -28 -41 -38 6 -4 10 -2 10
3 0 5 21 13 48 18 44 9 46 10 25 22 -17 9 -23 10 -23 1z"/>
<path d="M3553 2403 c9 -2 25 -2 35 0 9 3 1 5 -18 5 -19 0 -27 -2 -17 -5z"/>
<path d="M2486 2363 c4 -16 13 -43 20 -62 18 -44 17 -101 -5 -183 -9 -37 -14
-73 -11 -78 10 -16 33 15 28 37 -3 10 2 31 9 46 8 15 11 33 7 39 -4 7 -3 8 4
4 20 -12 1 125 -24 177 -27 53 -38 60 -28 20z"/>
<path d="M3974 2364 c-15 -6 -5 -64 12 -64 9 0 13 12 12 35 -1 35 -3 37 -24
29z"/>
<path d="M3890 2349 c0 -16 21 -20 35 -6 12 13 11 15 -11 15 -13 0 -24 -4 -24
-9z"/>
<path d="M3830 2337 c0 -13 -10 -17 -37 -18 -21 -1 -44 -1 -52 0 -7 2 -11 -4
-8 -11 2 -7 10 -12 16 -10 6 1 11 -6 11 -15 1 -16 2 -16 13 -3 7 8 22 14 34
12 17 -3 24 3 29 23 3 14 4 29 0 32 -3 4 -6 -1 -6 -10z"/>
<path d="M3645 2320 c-3 -5 3 -10 15 -10 12 0 18 5 15 10 -3 6 -10 10 -15 10
-5 0 -12 -4 -15 -10z"/>
<path d="M3850 2310 c0 -5 5 -10 10 -10 6 0 10 5 10 10 0 6 -4 10 -10 10 -5 0
-10 -4 -10 -10z"/>
<path d="M2162 2294 c-30 -21 -29 -60 1 -68 28 -7 119 2 128 12 13 13 -10 52
-36 62 -37 14 -67 12 -93 -6z"/>
<path d="M3985 2280 c-3 -5 -1 -10 4 -10 6 0 11 5 11 10 0 6 -2 10 -4 10 -3 0
-8 -4 -11 -10z"/>
<path d="M3628 2273 c12 -2 30 -2 40 0 9 3 -1 5 -23 4 -22 0 -30 -2 -17 -4z"/>
<path d="M1691 2233 c-19 -75 -18 -83 10 -83 5 0 8 4 5 9 -3 5 1 31 9 57 8 27
15 50 15 52 0 1 -7 2 -15 2 -8 0 -18 -16 -24 -37z"/>
<path d="M3750 2254 c0 -12 11 -26 32 -42 16 -13 19 -12 67 15 7 4 -21 33 -31
33 -6 0 -8 -9 -5 -20 7 -26 -11 -25 -40 2 -13 12 -23 17 -23 12z"/>
<path d="M3575 2241 c-3 -5 -1 -12 4 -15 5 -3 11 1 15 9 6 16 -9 21 -19 6z"/>
<path d="M3871 2247 c2 -1 12 -9 22 -16 15 -12 17 -12 11 3 -3 9 -13 16 -22
16 -8 0 -13 -1 -11 -3z"/>
<path d="M3928 2244 c-10 -10 4 -44 18 -44 8 0 14 3 14 8 -1 12 -27 42 -32 36z"/>
<path d="M1637 2233 c-4 -3 -7 -15 -7 -25 0 -16 -11 -23 -34 -19 -13 3 -36
-20 -30 -30 3 -5 14 -9 24 -9 10 0 21 -4 24 -8 2 -4 -5 -8 -17 -8 -115 -1
-148 -16 -41 -18 46 -1 58 -4 60 -18 1 -10 10 -38 20 -63 15 -40 21 -46 42
-43 14 2 28 9 30 17 3 8 0 11 -6 7 -5 -3 -13 9 -16 29 -4 19 -12 35 -19 35 -7
0 -1 9 13 20 25 20 22 24 -15 21 -16 -2 -17 0 -6 8 11 7 12 13 4 23 -5 7 -9
30 -7 51 3 35 -4 46 -19 30z m40 -225 c-3 -8 -6 -5 -6 6 -1 11 2 17 5 13 3 -3
4 -12 1 -19z"/>
<path d="M3400 2219 c0 -18 28 -29 74 -29 28 0 28 1 11 13 -10 8 -30 13 -44
11 -14 -1 -29 3 -33 9 -5 8 -8 7 -8 -4z"/>
<path d="M3730 2200 c0 -11 -5 -20 -10 -20 -20 0 -53 -39 -47 -54 4 -9 2 -15
-2 -13 -9 2 -11 -3 -11 -23 0 -12 29 -2 53 18 9 8 17 11 17 6 -1 -20 -51 -46
-78 -40 -15 3 -21 3 -14 0 22 -10 13 -23 -20 -27 -30 -4 -31 -5 -10 -12 12 -4
22 -11 22 -16 0 -14 28 -11 33 4 3 7 6 5 6 -6 1 -13 7 -16 26 -11 19 5 25 2
25 -10 0 -8 -6 -14 -12 -12 -47 15 -78 15 -78 1 0 -9 10 -15 25 -15 26 0 34
-15 13 -23 -7 -3 -5 -6 6 -6 10 -1 24 7 31 16 11 14 15 15 28 4 9 -7 24 -11
34 -9 10 1 24 -1 31 -6 9 -5 19 -1 28 13 21 29 74 29 74 0 0 -15 4 -19 16 -15
9 3 27 6 40 6 14 0 22 4 19 10 -3 6 -2 10 4 10 5 0 11 -8 14 -17 2 -10 4 38 4
107 0 69 -2 119 -4 113 -5 -14 -24 -18 -22 -5 3 19 -2 25 -11 12 -8 -12 -13
-13 -30 -2 -18 11 -20 10 -21 -10 -1 -17 -2 -19 -6 -5 -5 20 -14 22 -31 5 -9
-9 -15 -9 -24 0 -9 9 -8 12 8 12 15 0 16 2 4 10 -10 6 -20 4 -33 -8 -17 -15
-20 -15 -30 -2 -7 8 -24 21 -39 27 -25 11 -28 11 -28 -7z m60 -85 c9 -11 31
-13 93 -11 l82 4 -54 -18 c-43 -13 -61 -15 -85 -6 -30 11 -74 46 -57 46 5 0
14 -7 21 -15z m171 -34 c-12 -8 -13 -12 -1 -25 18 -23 8 -29 -26 -15 -27 10
-27 12 -9 19 11 5 16 9 10 9 -12 2 16 21 30 21 6 0 4 -4 -4 -9z"/>
<path d="M3270 2190 c0 -5 7 -10 16 -10 8 0 12 5 9 10 -3 6 -10 10 -16 10 -5
0 -9 -4 -9 -10z"/>
<path d="M3350 2180 c0 -5 -10 -10 -22 -10 -13 0 -29 -4 -37 -9 -18 -12 -2
-34 38 -54 28 -14 65 -11 55 4 -3 5 -10 7 -15 4 -5 -4 -9 -2 -9 3 0 6 -9 8
-20 5 -15 -4 -20 0 -20 15 0 15 5 19 20 15 11 -3 20 0 20 6 0 6 9 11 21 11 11
0 17 5 14 10 -3 6 -15 10 -26 10 -10 0 -19 -4 -19 -10z"/>
<path d="M3612 2163 c-18 -7 5 -33 30 -33 16 0 17 3 8 20 -11 21 -16 22 -38
13z"/>
<path d="M3497 2153 c-11 -10 -8 -51 3 -58 6 -4 10 8 10 29 0 37 -2 41 -13 29z"/>
<path d="M3375 2140 c-3 -5 1 -10 9 -10 9 0 16 5 16 10 0 6 -4 10 -9 10 -6 0
-13 -4 -16 -10z"/>
<path d="M3417 2109 c14 -12 53 -21 53 -11 0 5 -14 12 -30 14 -17 3 -27 1 -23
-3z"/>
<path d="M1685 2080 c3 -5 12 -7 20 -3 21 7 19 13 -6 13 -11 0 -18 -4 -14 -10z"/>
<path d="M3356 2083 c-11 -11 -6 -23 9 -23 8 0 15 4 15 9 0 13 -16 22 -24 14z"/>
<path d="M3566 2081 c-13 -5 -16 -10 -9 -14 7 -4 14 -3 18 2 3 6 13 7 22 4 11
-4 14 -3 9 5 -8 13 -13 14 -40 3z"/>
<path d="M2400 2074 c0 -4 8 -13 18 -20 14 -11 15 -15 3 -23 -17 -11 -17 -59
0 -122 25 -95 11 -131 -40 -106 -17 9 -31 13 -31 11 0 -18 40 -57 90 -88 32
-20 67 -48 78 -63 l20 -27 11 56 c7 31 22 69 33 83 17 22 26 26 53 21 27 -5
33 -3 43 19 16 35 16 35 -23 35 -20 0 -51 6 -70 14 -37 16 -45 13 -46 -18 0
-12 -9 18 -19 66 -19 91 -44 136 -88 157 -26 13 -32 13 -32 5z"/>
<path d="M3265 2070 c3 -5 8 -10 11 -10 2 0 4 5 4 10 0 6 -5 10 -11 10 -5 0
-7 -4 -4 -10z"/>
<path d="M3296 2035 c-3 -8 -1 -15 4 -15 6 0 10 7 10 15 0 8 -2 15 -4 15 -2 0
-6 -7 -10 -15z"/>
<path d="M3260 2029 c0 -5 5 -7 10 -4 6 3 10 8 10 11 0 2 -4 4 -10 4 -5 0 -10
-5 -10 -11z"/>
<path d="M1561 2000 c0 -8 8 -33 19 -55 10 -22 16 -43 14 -47 -3 -5 0 -8 5 -8
6 0 11 6 11 13 0 18 -48 114 -49 97z"/>
<path d="M3237 1996 c-3 -8 -2 -18 4 -22 16 -9 22 2 11 21 -8 15 -10 16 -15 1z"/>
<path d="M3848 1963 c7 -3 16 -2 19 1 4 3 -2 6 -13 5 -11 0 -14 -3 -6 -6z"/>
<path d="M3255 1950 c3 -5 11 -10 16 -10 6 0 7 5 4 10 -3 6 -11 10 -16 10 -6
0 -7 -4 -4 -10z"/>
<path d="M3600 1946 c0 -9 30 -14 35 -6 4 6 -3 10 -14 10 -12 0 -21 -2 -21 -4z"/>
<path d="M3310 1930 c0 -5 5 -10 10 -10 6 0 10 5 10 10 0 6 -4 10 -10 10 -5 0
-10 -4 -10 -10z"/>
<path d="M3811 1921 c3 -8 15 -18 27 -22 16 -6 20 -5 15 7 -3 8 -8 12 -11 10
-3 -3 -12 0 -20 7 -12 10 -14 9 -11 -2z"/>
<path d="M3887 1904 c3 -7 9 -14 14 -14 14 0 10 17 -5 23 -10 4 -13 1 -9 -9z"/>
<path d="M3952 1909 c2 -7 10 -15 17 -17 8 -3 12 1 9 9 -2 7 -10 15 -17 17 -8
3 -12 -1 -9 -9z"/>
<path d="M3700 1900 c1 -8 7 -24 15 -34 8 -11 15 -14 15 -8 0 7 8 12 18 13 12
0 10 3 -8 12 -14 6 -28 16 -32 22 -5 6 -8 4 -8 -5z"/>
<path d="M3560 1891 c0 -5 -10 -7 -22 -4 -23 5 -23 5 -3 -10 18 -15 21 -15 33
1 11 15 14 15 22 2 8 -12 11 -13 19 -1 6 9 11 10 15 2 4 -6 -6 -19 -23 -29
l-31 -19 35 0 c19 0 32 4 29 9 -3 4 0 8 6 8 6 0 8 4 5 10 -4 6 1 7 12 3 31
-11 36 -15 23 -23 -7 -5 -9 -13 -5 -21 6 -9 10 -7 16 9 6 17 3 29 -13 47 -17
20 -31 25 -70 25 -26 0 -48 -4 -48 -9z"/>
<path d="M1790 1855 c-52 -28 -106 -31 -157 -10 -52 22 -57 19 -29 -18 15 -19
26 -39 26 -44 0 -14 26 -24 44 -17 8 3 24 1 35 -6 19 -10 21 -8 21 15 0 25 2
26 33 20 17 -4 35 -13 39 -19 3 -6 16 -22 28 -36 11 -13 30 -39 41 -57 11 -18
27 -33 34 -33 8 0 18 -6 22 -14 4 -8 13 -15 18 -16 10 -2 49 -94 59 -142 3
-15 15 -29 25 -33 21 -6 47 -68 36 -85 -3 -5 -2 -10 4 -10 6 0 8 -8 5 -17 -5
-17 -5 -17 6 -1 6 10 11 21 11 25 1 13 31 43 44 43 19 0 24 68 7 83 -9 7 -17
10 -19 9 -3 -2 -8 0 -11 4 -4 4 -1 3 7 -1 11 -6 13 -4 8 9 -4 10 -7 21 -7 24
0 4 -4 1 -9 -7 -8 -12 -12 -12 -25 -2 -18 15 -21 41 -6 41 6 0 10 -4 10 -10 0
-5 4 -10 9 -10 11 0 2 38 -11 46 -6 4 -14 0 -19 -7 -8 -11 -12 -10 -24 5 -17
23 -20 46 -5 46 6 0 10 -4 10 -10 0 -5 7 -7 15 -4 13 5 13 10 -2 35 -10 17
-29 37 -43 46 -43 28 -139 132 -146 158 -8 31 -26 31 -84 0z"/>
<path d="M3926 1865 c-4 -10 3 -11 32 -3 49 13 50 16 8 16 -19 0 -37 -6 -40
-13z"/>
<path d="M3766 1862 c-3 -5 14 -9 37 -9 30 -2 46 -8 56 -23 17 -25 27 -26 27
-1 0 11 -4 17 -8 15 -4 -3 -8 1 -8 9 0 10 -15 14 -50 15 -27 0 -52 -2 -54 -6z"/>
<path d="M3900 1826 c0 -9 5 -16 12 -16 6 0 21 -8 32 -17 20 -17 20 -17 7 0
-8 10 -9 17 -3 17 6 0 15 -7 20 -16 5 -9 14 -14 21 -10 27 17 4 35 -64 52 -19
5 -25 2 -25 -10z"/>
<path d="M3397 1796 c-9 -23 21 -28 33 -6 9 17 7 20 -9 20 -10 0 -21 -6 -24
-14z"/>
<path d="M3780 1796 c0 -8 5 -18 11 -21 15 -10 61 4 53 16 -3 6 -15 9 -25 6
-11 -3 -19 -1 -19 4 0 5 -4 9 -10 9 -5 0 -10 -6 -10 -14z"/>
<path d="M3900 1789 c0 -5 5 -7 10 -4 6 3 10 8 10 11 0 2 -4 4 -10 4 -5 0 -10
-5 -10 -11z"/>
<path d="M3525 1759 c5 -14 1 -19 -14 -19 -12 0 -21 -5 -21 -11 0 -6 6 -9 13
-6 6 2 25 0 40 -4 23 -6 27 -5 18 5 -6 7 -8 16 -5 19 8 7 44 -13 61 -33 9 -12
14 -12 24 -3 9 9 9 15 -2 25 -22 20 -62 39 -92 42 -23 3 -26 0 -22 -15z"/>
<path d="M3445 1760 c-3 -5 1 -10 9 -10 9 0 16 5 16 10 0 6 -4 10 -9 10 -6 0
-13 -4 -16 -10z"/>
<path d="M3480 1760 c0 -5 5 -10 10 -10 6 0 10 5 10 10 0 6 -4 10 -10 10 -5 0
-10 -4 -10 -10z"/>
<path d="M3934 1758 c-3 -5 9 -8 25 -8 17 0 31 4 31 10 0 11 -49 9 -56 -2z"/>
<path d="M3670 1710 c0 -5 5 -10 10 -10 6 0 10 5 10 10 0 6 -4 10 -10 10 -5 0
-10 -4 -10 -10z"/>
<path d="M3515 1690 c-7 -12 2 -12 30 0 19 8 19 9 -2 9 -12 1 -25 -3 -28 -9z"/>
<path d="M3470 1686 c0 -2 7 -9 15 -16 12 -10 15 -10 15 4 0 9 -7 16 -15 16
-8 0 -15 -2 -15 -4z"/>
<path d="M3157 1660 c-4 -14 -6 -41 -6 -60 1 -34 2 -33 10 10 10 51 7 89 -4
50z"/>
<path d="M3840 1670 c0 -5 5 -10 10 -10 6 0 10 5 10 10 0 6 -4 10 -10 10 -5 0
-10 -4 -10 -10z"/>
<path d="M3396 1646 c5 -12 2 -15 -11 -10 -13 5 -16 3 -13 -7 7 -22 48 -24 48
-2 1 17 1 17 11 0 7 -13 7 -22 0 -31 -6 -7 -7 -17 -3 -21 4 -5 -1 -5 -11 -2
-10 4 -21 7 -23 7 -3 0 -2 4 1 10 3 5 0 7 -8 4 -9 -3 -12 -14 -9 -29 2 -14 9
-22 15 -18 6 4 8 -2 5 -15 -7 -25 20 -34 73 -26 22 4 39 2 43 -5 4 -6 1 -11
-7 -11 -9 0 -14 -10 -14 -25 0 -14 4 -22 10 -18 5 3 7 1 4 -4 -8 -13 9 -28 42
-38 20 -6 23 -4 18 9 -4 9 -2 16 2 16 5 0 12 -7 15 -15 3 -9 11 -15 18 -14 29
3 46 -2 52 -16 3 -9 0 -15 -10 -15 -9 0 -12 5 -8 13 5 9 4 9 -6 0 -9 -9 -19
-9 -32 -2 -11 6 -24 8 -31 6 -7 -2 4 -11 24 -19 20 -9 45 -28 57 -43 12 -15
26 -24 31 -20 6 3 21 0 33 -8 13 -7 36 -12 51 -11 20 1 26 -3 23 -12 -3 -9 2
-14 13 -14 28 0 52 -11 45 -21 -3 -5 0 -17 5 -26 9 -16 10 -16 11 4 0 16 7 22
28 25 22 2 26 7 24 27 -3 16 1 22 10 19 7 -3 14 -14 16 -26 4 -25 22 -30 22
-6 0 11 6 15 19 11 17 -4 19 2 19 69 0 72 -3 79 -33 75 -6 0 -11 8 -11 18 0
15 4 17 18 10 21 -11 32 3 23 30 -5 16 -13 19 -43 15 -20 -3 -44 -12 -54 -21
-17 -15 -18 -15 -18 1 0 9 7 19 15 22 8 4 12 10 9 15 -3 5 -23 0 -45 -11 -36
-19 -44 -18 -40 3 1 5 -3 6 -8 3 -5 -3 -19 2 -31 12 -18 15 -32 17 -74 11 -28
-3 -58 -3 -67 2 -8 4 -22 3 -30 -2 -11 -7 -10 -9 6 -10 11 0 14 -3 8 -6 -7 -2
-13 -11 -13 -18 0 -10 -10 -13 -30 -12 -17 1 -30 8 -30 15 0 9 7 11 20 7 26
-8 25 3 -2 32 -12 13 -17 23 -12 24 5 0 29 3 54 5 25 3 53 5 63 5 9 0 17 4 17
10 0 5 -4 9 -9 9 -5 0 -18 3 -28 6 -15 5 -15 4 -3 -5 12 -9 11 -11 -7 -11 -13
0 -22 5 -20 13 1 7 -6 11 -18 9 -16 -2 -17 -1 -5 7 8 6 11 11 5 12 -5 0 -1 5
10 10 14 6 1 7 -39 4 -36 -3 -65 0 -73 7 -11 8 -12 7 -7 -6 9 -23 -12 -20 -29
4 -8 11 -28 23 -46 26 -26 6 -30 4 -25 -10z m80 -66 c8 0 14 -6 14 -14 0 -8 6
-17 13 -20 6 -3 0 -4 -15 -2 -16 2 -25 -1 -21 -7 3 -5 0 -7 -8 -5 -8 3 -22 1
-31 -4 -24 -12 -23 4 2 22 15 11 17 17 7 29 -10 12 -9 14 6 8 10 -4 25 -7 33
-7z m267 -87 c-7 -2 -19 -2 -25 0 -7 3 -2 5 12 5 14 0 19 -2 13 -5z m163 -81
c-20 -20 -22 -1 -3 28 10 18 12 18 15 4 2 -9 -3 -24 -12 -32z m-32 23 c3 -8 1
-15 -4 -15 -6 0 -10 7 -10 15 0 8 2 15 4 15 2 0 6 -7 10 -15z m-86 -75 c-24
-33 -52 -41 -41 -12 8 20 33 41 51 42 8 0 5 -11 -10 -30z m-122 -15 c12 -8 24
-11 28 -8 3 3 6 1 6 -5 0 -7 -2 -12 -5 -12 -10 0 -65 30 -65 35 0 9 16 5 36
-10z m228 -81 c4 -11 1 -14 -11 -12 -9 2 -18 9 -21 16 -6 18 25 15 32 -4z"/>
<path d="M3605 1650 c3 -5 10 -10 16 -10 5 0 9 5 9 10 0 6 -7 10 -16 10 -8 0
-12 -4 -9 -10z"/>
<path d="M3740 1632 c0 -6 -8 -13 -17 -15 -11 -3 -8 -5 9 -6 16 -1 32 -9 38
-20 6 -13 16 -17 31 -14 16 4 17 8 7 14 -10 7 -9 9 5 9 9 0 17 7 17 15 0 9 -9
15 -22 15 -13 0 -33 3 -45 6 -13 4 -23 2 -23 -4z"/>
<path d="M3985 1630 c3 -5 8 -10 11 -10 2 0 4 5 4 10 0 6 -5 10 -11 10 -5 0
-7 -4 -4 -10z"/>
<path d="M3943 1604 c-14 -6 -6 -34 9 -34 6 0 8 6 5 14 -3 8 -1 17 6 20 7 2 8
4 2 4 -5 0 -15 -2 -22 -4z"/>
<path d="M1318 1574 c-4 -4 -3 -15 2 -24 5 -10 12 -37 15 -61 7 -55 15 -63 14
-13 -1 45 -21 109 -31 98z"/>
<path d="M3835 1571 c-6 -11 9 -23 19 -14 9 9 7 23 -3 23 -6 0 -12 -4 -16 -9z"/>
<path d="M2130 1560 c0 -5 5 -10 11 -10 5 0 7 5 4 10 -3 6 -8 10 -11 10 -2 0
-4 -4 -4 -10z"/>
<path d="M3153 1497 c3 -9 2 -17 -3 -19 -5 -2 -12 -16 -15 -33 l-7 -30 21 33
c24 37 26 48 9 58 -7 5 -9 2 -5 -9z"/>
<path d="M3420 1470 c0 -5 5 -10 10 -10 6 0 10 5 10 10 0 6 -4 10 -10 10 -5 0
-10 -4 -10 -10z"/>
<path d="M1340 1418 c0 -7 5 -20 10 -28 8 -12 10 -11 10 7 0 12 -4 25 -10 28
-5 3 -10 0 -10 -7z"/>
<path d="M3449 1413 c9 -18 61 -27 61 -11 0 4 -11 8 -25 8 -14 0 -25 5 -25 10
0 6 -5 10 -10 10 -8 0 -8 -6 -1 -17z"/>
<path d="M2368 1403 c7 -3 16 -2 19 1 4 3 -2 6 -13 5 -11 0 -14 -3 -6 -6z"/>
<path d="M2040 1379 c0 -11 4 -18 10 -14 5 3 7 12 3 20 -7 21 -13 19 -13 -6z"/>
<path d="M3476 1365 c4 -9 11 -14 16 -13 15 5 11 23 -6 26 -11 2 -14 -2 -10
-13z"/>
<path d="M3440 1355 c0 -8 9 -19 21 -25 20 -11 20 -11 4 14 -20 30 -25 32 -25
11z"/>
<path d="M1362 1335 c0 -16 2 -22 5 -12 2 9 2 23 0 30 -3 6 -5 -1 -5 -18z"/>
<path d="M3595 1321 c-6 -21 3 -51 16 -51 13 0 11 18 -2 22 -8 3 -6 9 4 20 14
13 14 17 2 22 -8 3 -16 -3 -20 -13z"/>
<path d="M3402 1291 c1 -14 10 -27 18 -29 13 -5 13 -3 0 13 -8 10 -13 20 -12
22 2 3 1 8 -3 11 -4 4 -5 -4 -3 -17z"/>
<path d="M3450 1300 c0 -5 5 -10 10 -10 6 0 10 5 10 10 0 6 -4 10 -10 10 -5 0
-10 -4 -10 -10z"/>
<path d="M1371 1284 c0 -11 3 -14 6 -6 3 7 2 16 -1 19 -3 4 -6 -2 -5 -13z"/>
<path d="M2385 1280 c3 -5 8 -10 11 -10 2 0 4 5 4 10 0 6 -5 10 -11 10 -5 0
-7 -4 -4 -10z"/>
<path d="M3645 1280 c3 -5 8 -10 11 -10 2 0 4 5 4 10 0 6 -5 10 -11 10 -5 0
-7 -4 -4 -10z"/>
<path d="M3675 1281 c-6 -11 9 -23 19 -14 9 9 7 23 -3 23 -6 0 -12 -4 -16 -9z"/>
<path d="M2860 1271 c-40 -4 -57 -8 -44 -12 19 -6 20 -11 14 -58 -3 -28 -5
-53 -3 -55 2 -1 36 4 76 12 39 8 81 14 92 14 11 0 35 2 54 4 25 4 31 8 22 17
-17 17 -13 37 7 37 28 1 -6 17 -50 24 -38 6 -38 6 -38 -28 0 -29 -3 -33 -20
-29 -10 3 -25 12 -32 20 -10 12 -8 18 12 34 14 10 20 19 13 19 -6 0 -17 1 -25
3 -7 2 -42 1 -78 -2z"/>
<path d="M3540 1260 c0 -5 5 -10 10 -10 6 0 10 5 10 10 0 6 -4 10 -10 10 -5 0
-10 -4 -10 -10z"/>
<path d="M1380 1243 c0 -12 5 -25 11 -28 17 -11 18 -2 4 25 -14 24 -14 24 -15
3z"/>
<path d="M3626 1220 c4 -25 3 -40 -4 -40 -12 0 -26 29 -23 48 3 18 -16 15 -27
-4 -14 -25 -3 -53 18 -47 10 3 26 -4 36 -15 11 -10 30 -22 44 -25 24 -6 24 -6
5 9 -19 15 -18 15 15 9 19 -3 45 -7 58 -8 12 -1 22 -6 22 -12 0 -5 4 -4 9 4
15 24 -30 51 -83 51 -46 0 -50 4 -49 47 0 6 -6 14 -13 17 -11 4 -13 -3 -8 -34z"/>
<path d="M3927 1219 c7 -7 15 -10 18 -7 3 3 -2 9 -12 12 -14 6 -15 5 -6 -5z"/>
<path d="M3505 1201 c-16 -4 -25 -9 -20 -13 15 -9 65 -7 65 3 0 13 -13 16 -45
10z"/>
<path d="M1350 1189 c0 -5 5 -9 10 -9 6 0 10 -7 10 -15 0 -8 6 -15 14 -15 19
0 35 -51 38 -120 1 -30 6 -61 11 -67 12 -17 38 -148 38 -198 0 -22 7 -60 15
-84 17 -51 12 -65 -9 -24 -34 64 -112 113 -167 105 -40 -6 -38 -15 6 -31 52
-19 112 -62 167 -120 42 -44 46 -53 37 -71 -8 -16 -8 -30 1 -58 7 -20 13 -39
14 -42 3 -23 25 -41 41 -36 24 7 53 55 47 76 -4 12 -3 13 5 1 5 -7 15 -10 21
-7 19 12 12 23 -21 32 -23 7 -34 17 -36 32 -2 12 -7 22 -12 22 -5 0 -12 16
-16 35 -7 38 -24 48 -24 14 0 -11 -4 -18 -8 -15 -18 11 -61 274 -66 407 -2 33
-12 76 -24 102 -23 49 -32 110 -11 75 13 -24 29 -23 29 2 0 17 -7 19 -55 19
-30 -1 -55 -5 -55 -10z"/>
<path d="M1500 1190 c25 -8 87 -13 79 -6 -2 2 -26 6 -54 9 -34 4 -42 3 -25 -3z"/>
<path d="M2068 1183 c12 -2 30 -2 40 0 9 3 -1 5 -23 4 -22 0 -30 -2 -17 -4z"/>
<path d="M3443 1167 c1 -7 -6 -11 -15 -9 -10 2 -18 -2 -18 -8 0 -11 11 -13 50
-11 17 1 21 -1 12 -7 -10 -7 -10 -11 3 -22 10 -8 15 -9 15 -1 0 6 9 20 21 32
11 11 18 24 14 27 -3 4 -10 0 -14 -7 -7 -11 -14 -11 -40 2 -20 10 -30 11 -28
4z"/>
<path d="M3825 1169 c-18 -6 -19 -7 -2 -14 9 -4 17 -13 17 -21 0 -8 4 -14 9
-14 5 0 7 9 4 20 -3 11 0 20 6 20 6 0 11 4 11 8 0 11 -20 11 -45 1z"/>
<path d="M3560 1150 c8 -5 22 -10 30 -10 13 0 13 1 0 10 -8 5 -22 10 -30 10
-13 0 -13 -1 0 -10z"/>
<path d="M3870 1141 c0 -5 9 -11 20 -14 11 -3 20 -1 20 5 0 5 4 7 10 3 5 -3 6
-13 3 -23 -4 -13 -2 -13 10 3 11 15 12 22 4 27 -17 11 -67 10 -67 -1z"/>
<path d="M3536 1124 c-5 -12 -2 -15 10 -10 8 3 18 6 20 6 3 0 2 5 -1 10 -9 15
-22 12 -29 -6z"/>
<path d="M855 1089 c-10 -15 3 -25 16 -12 7 7 7 13 1 17 -6 3 -14 1 -17 -5z"/>
<path d="M3775 1080 c3 -5 10 -10 16 -10 5 0 9 5 9 10 0 6 -7 10 -16 10 -8 0
-12 -4 -9 -10z"/>
<path d="M727 1074 c-8 -8 1 -24 14 -24 5 0 9 7 9 15 0 15 -12 20 -23 9z"/>
<path d="M3611 1066 c-8 -10 -8 -16 3 -25 11 -9 14 -7 14 14 0 29 -2 30 -17
11z"/>
<path d="M3880 1070 c0 -5 5 -10 10 -10 6 0 10 5 10 10 0 6 -4 10 -10 10 -5 0
-10 -4 -10 -10z"/>
<path d="M2695 1003 c-26 -104 -44 -165 -61 -204 -15 -35 -15 -38 9 -76 41
-64 54 -105 49 -151 -4 -38 -7 -43 -24 -39 -19 5 -19 4 -4 -12 16 -17 15 -18
-10 -18 -42 0 -65 -33 -79 -115 -7 -40 -16 -84 -20 -98 -6 -24 -5 -23 22 7 15
17 37 52 48 77 20 45 35 59 35 33 0 -56 -132 -235 -152 -205 -6 10 -10 7 -14
-10 -6 -22 -31 -25 -27 -3 2 6 -9 11 -25 11 -37 1 -107 34 -159 76 -24 19 -43
31 -43 25 0 -6 5 -11 10 -11 6 0 10 -7 10 -15 0 -8 5 -14 12 -12 7 1 17 -8 22
-20 6 -13 15 -22 21 -22 29 3 38 -3 17 -12 -19 -7 -29 -4 -54 20 -31 29 -32
29 -72 14 -53 -21 -53 -21 -30 -38 26 -19 1 -19 -36 0 -23 12 -30 13 -30 3 0
-14 -50 -16 -82 -3 -31 12 -21 -24 12 -43 48 -28 22 -48 -35 -28 l-20 8 20
-17 c11 -9 39 -25 63 -36 23 -10 42 -22 42 -27 0 -5 11 -14 25 -20 32 -15 38
-15 30 -2 -7 11 38 14 48 3 4 -3 -5 -15 -20 -25 -28 -18 -27 -18 104 -18 l132
0 25 33 c15 19 26 37 26 41 0 12 43 66 52 66 5 0 6 -5 2 -11 -4 -8 0 -9 15 -4
29 9 26 -7 -6 -38 -16 -14 -38 -40 -51 -57 l-24 -30 196 0 c163 0 197 3 210
16 16 16 41 10 31 -7 -4 -5 10 -9 29 -9 20 0 36 3 36 8 0 4 12 12 25 19 22 10
27 9 38 -8 15 -24 27 -25 27 -1 1 15 2 15 16 -3 16 -19 16 -19 11 10 -6 36 9
69 29 61 8 -3 14 -1 14 4 0 6 7 10 15 10 8 0 15 5 15 11 0 6 12 9 26 7 19 -2
31 4 43 22 15 23 15 24 -4 16 -44 -19 -76 -19 -91 0 -14 18 -15 18 -9 -2 4
-18 0 -23 -22 -27 -48 -9 -48 10 -1 52 80 74 116 191 84 276 -8 22 -15 33 -17
25 -1 -8 -3 -26 -4 -39 -2 -22 -39 -60 -58 -61 -19 0 -17 32 3 60 16 23 21 41
18 70 -2 22 1 41 6 43 14 5 -35 66 -52 66 -8 1 -12 -9 -11 -26 1 -16 1 -52 1
-81 -2 -49 -5 -55 -57 -106 -30 -30 -63 -57 -75 -61 -18 -6 -20 -2 -18 34 1
28 8 47 25 63 12 12 23 31 23 43 0 12 11 32 25 45 14 13 25 29 25 35 0 6 13
24 30 40 16 15 27 32 24 37 -3 5 6 22 20 39 29 35 30 38 13 60 -21 27 -89 57
-172 74 -109 22 -107 21 -134 60 -19 29 -21 38 -11 50 10 12 38 15 154 13 142
-3 176 3 157 26 -7 9 -7 16 1 24 32 32 -133 49 -242 26 -87 -19 -103 -14 -121
33 -14 38 -26 26 -44 -44z m180 -253 c3 -5 2 -10 -4 -10 -5 0 -13 5 -16 10 -3
6 -2 10 4 10 5 0 13 -4 16 -10z m-28 -58 c20 4 37 -50 22 -68 -5 -6 -6 -20 -3
-30 6 -17 4 -16 -18 4 -27 24 -44 28 -50 10 -5 -14 -58 19 -58 36 0 13 53 56
70 56 5 0 11 6 11 13 1 6 3 4 6 -6 2 -10 12 -16 20 -15z m-697 -522 c0 -5 -4
-10 -9 -10 -6 0 -13 5 -16 10 -3 6 1 10 9 10 9 0 16 -4 16 -10z m280 -45 c-7
-8 -17 -15 -23 -15 -5 0 -2 9 8 20 21 23 35 19 15 -5z m-30 -32 c-1 -13 -50
-69 -50 -56 0 6 10 23 23 37 24 28 27 30 27 19z"/>
<path d="M3720 1060 c0 -5 5 -10 11 -10 5 0 7 5 4 10 -3 6 -8 10 -11 10 -2 0
-4 -4 -4 -10z"/>
<path d="M820 1020 c0 -5 4 -10 9 -10 6 0 13 5 16 10 3 6 -1 10 -9 10 -9 0
-16 -4 -16 -10z"/>
<path d="M3810 971 c0 -5 5 -13 10 -16 6 -3 10 -2 10 4 0 5 -4 13 -10 16 -5 3
-10 2 -10 -4z"/>
<path d="M908 924 c-5 -4 -8 -16 -8 -26 0 -10 -6 -18 -12 -18 -7 0 -5 -5 5
-11 24 -14 29 -8 25 31 -2 18 -6 28 -10 24z"/>
<path d="M3590 873 c0 -13 29 -38 35 -31 3 3 -4 13 -15 23 -11 10 -20 13 -20
8z"/>
<path d="M3478 863 c7 -3 16 -2 19 1 4 3 -2 6 -13 5 -11 0 -14 -3 -6 -6z"/>
<path d="M3968 823 c6 -2 18 -2 25 0 6 3 1 5 -13 5 -14 0 -19 -2 -12 -5z"/>
<path d="M3625 749 c-4 -6 -5 -13 -2 -16 7 -7 27 6 27 18 0 12 -17 12 -25 -2z"/>
<path d="M3735 750 c3 -5 8 -10 11 -10 2 0 4 5 4 10 0 6 -5 10 -11 10 -5 0 -7
-4 -4 -10z"/>
<path d="M3777 747 c-3 -9 -3 -17 1 -18 4 0 17 -2 30 -3 12 -2 27 3 33 11 8 9
8 13 0 13 -6 0 -11 -6 -11 -12 0 -10 -3 -9 -9 1 -7 11 -10 11 -16 0 -6 -10
-10 -8 -15 6 -6 17 -7 17 -13 2z"/>
<path d="M470 730 c0 -5 5 -10 11 -10 5 0 7 5 4 10 -3 6 -8 10 -11 10 -2 0 -4
-4 -4 -10z"/>
<path d="M636 717 c3 -10 9 -15 12 -12 3 3 0 11 -7 18 -10 9 -11 8 -5 -6z"/>
<path d="M3540 709 c0 -5 5 -7 10 -4 6 3 10 8 10 11 0 2 -4 4 -10 4 -5 0 -10
-5 -10 -11z"/>
<path d="M3685 709 c-4 -6 -14 -8 -22 -5 -8 3 -11 2 -8 -3 8 -14 45 -9 45 6 0
16 -7 17 -15 2z"/>
<path d="M3890 710 c0 -6 7 -10 15 -10 8 0 15 2 15 4 0 2 -7 6 -15 10 -8 3
-15 1 -15 -4z"/>
<path d="M3770 701 c0 -5 5 -13 10 -16 6 -3 10 -2 10 4 0 5 -4 13 -10 16 -5 3
-10 2 -10 -4z"/>
<path d="M470 690 c0 -5 5 -10 11 -10 5 0 7 5 4 10 -3 6 -8 10 -11 10 -2 0 -4
-4 -4 -10z"/>
<path d="M626 643 c2 -26 5 -54 6 -60 2 -22 35 -14 51 11 9 13 14 26 11 29
-10 9 -34 -4 -34 -19 0 -8 -4 -14 -10 -14 -17 0 -11 28 8 39 16 10 15 10 -3
11 -14 0 -16 3 -7 8 9 7 8 13 -7 26 -19 18 -20 17 -15 -31z"/>
<path d="M806 665 c-8 -9 -13 -22 -10 -30 3 -8 -5 -19 -21 -27 -24 -13 -25
-16 -10 -28 8 -7 18 -10 22 -7 3 3 18 0 34 -9 25 -13 28 -13 23 1 -4 10 -2 13
8 10 9 -4 19 4 26 20 13 29 9 45 -12 45 -8 0 -16 9 -19 20 -6 24 -20 26 -41 5z
m29 -35 c-4 -6 6 -10 22 -11 27 0 27 0 5 -10 -17 -6 -27 -5 -38 5 -11 11 -11
16 -1 19 18 8 19 8 12 -3z"/>
<path d="M3535 660 c3 -5 8 -10 11 -10 2 0 4 5 4 10 0 6 -5 10 -11 10 -5 0 -7
-4 -4 -10z"/>
<path d="M3791 654 c0 -11 3 -14 6 -6 3 7 2 16 -1 19 -3 4 -6 -2 -5 -13z"/>
<path d="M3975 660 c3 -5 10 -10 16 -10 5 0 9 5 9 10 0 6 -7 10 -16 10 -8 0
-12 -4 -9 -10z"/>
<path d="M685 650 c-3 -5 -1 -10 4 -10 6 0 11 5 11 10 0 6 -2 10 -4 10 -3 0
-8 -4 -11 -10z"/>
<path d="M3925 650 c3 -5 8 -10 11 -10 2 0 4 5 4 10 0 6 -5 10 -11 10 -5 0 -7
-4 -4 -10z"/>
<path d="M3498 643 c7 -3 16 -2 19 1 4 3 -2 6 -13 5 -11 0 -14 -3 -6 -6z"/>
<path d="M3840 642 c0 -12 19 -26 26 -19 2 2 -2 10 -11 17 -9 8 -15 8 -15 2z"/>
<path d="M1173 620 c-23 -10 -63 -39 -88 -64 -44 -45 -45 -47 -30 -70 9 -13
24 -28 33 -31 21 -9 184 -25 311 -30 167 -8 66 32 -139 54 -184 20 -184 20
-168 38 19 24 77 58 133 78 28 10 57 24 65 32 23 21 -66 16 -117 -7z"/>
<path d="M3120 626 c0 -16 53 -76 67 -76 8 0 11 -5 7 -12 -5 -10 -4 -10 5 -2
7 6 33 9 61 6 28 -2 50 -2 50 2 0 9 -92 53 -130 61 -19 4 -41 12 -47 17 -7 6
-13 7 -13 4z"/>
<path d="M110 610 c0 -5 5 -10 10 -10 6 0 10 5 10 10 0 6 -4 10 -10 10 -5 0
-10 -4 -10 -10z"/>
<path d="M3935 575 c2 -22 9 -41 15 -43 5 -2 10 -10 10 -17 0 -8 4 -16 9 -19
4 -3 6 6 3 19 -3 18 0 25 12 25 9 0 16 5 16 10 0 6 -6 10 -14 10 -8 0 -24 12
-35 28 l-21 27 5 -40z"/>
<path d="M503 577 c-9 -19 -7 -24 13 -34 26 -12 29 -7 18 35 -8 28 -18 28 -31
-1z"/>
<path d="M564 592 c-7 -4 -14 -27 -17 -52 -3 -25 -6 -46 -6 -47 -1 -2 -8 -3
-16 -3 -8 0 -15 -4 -15 -10 0 -5 -8 -10 -18 -10 -15 0 -18 -6 -14 -29 3 -22 8
-27 22 -24 12 3 19 -2 22 -21 5 -23 3 -24 -16 -14 -12 6 -25 17 -29 24 -4 8
-15 14 -22 14 -8 0 -15 5 -15 10 0 6 5 10 10 10 6 0 10 5 10 10 0 19 -20 10
-25 -12 -7 -24 -55 -67 -55 -48 0 6 7 13 15 16 33 13 14 27 -30 21 -26 -4 -47
-2 -51 4 -3 6 -12 8 -20 5 -7 -3 -18 2 -23 11 -8 15 -12 15 -25 4 -9 -8 -20
-11 -23 -7 -4 4 -1 11 6 15 18 11 5 31 -20 31 -17 0 -18 -3 -9 -20 11 -21 6
-40 -10 -40 -5 0 -7 7 -4 15 4 10 0 15 -11 15 -13 0 -16 -6 -11 -24 5 -20 3
-23 -14 -19 -21 5 -25 -4 -14 -31 3 -9 10 -13 16 -10 5 3 19 -2 30 -13 20 -18
21 -18 13 7 -7 22 -6 23 9 11 14 -12 16 -11 16 11 0 18 6 24 25 26 14 1 25 -2
25 -7 0 -5 -8 -8 -17 -7 -12 1 -19 -9 -23 -29 -5 -27 -9 -30 -43 -31 -20 -1
-37 3 -37 7 0 5 -7 9 -15 9 -8 0 -15 -4 -15 -10 0 -13 52 -38 70 -33 11 3 10
0 -2 -10 -21 -17 -23 -33 -5 -40 9 -4 9 -6 -1 -6 -7 -1 -17 10 -22 24 -11 30
-34 34 -25 5 3 -11 1 -28 -5 -37 -10 -16 -11 -16 -6 -1 3 10 1 20 -4 23 -6 4
-10 2 -10 -4 0 -5 -9 -9 -19 -8 -11 0 -17 6 -14 14 3 7 -1 13 -9 13 -7 0 -14
9 -14 20 0 11 6 20 13 20 17 0 60 87 49 97 -5 5 -11 2 -13 -5 -3 -7 -18 -19
-34 -27 -28 -15 -29 -14 -29 5 0 13 -4 18 -11 15 -6 -4 -8 -13 -5 -21 3 -7 1
-16 -5 -20 -6 -4 -4 -14 8 -27 9 -12 11 -16 3 -9 -8 6 -18 12 -22 12 -4 0 -8
-43 -8 -95 0 -93 4 -107 28 -83 9 9 13 7 18 -5 9 -25 -4 -39 -27 -27 -16 9
-19 7 -19 -11 0 -13 5 -19 13 -16 18 7 16 -35 -1 -49 -8 -5 -12 -21 -10 -35 4
-32 37 -36 85 -10 42 22 121 32 126 16 3 -6 9 -6 18 2 12 10 17 8 27 -8 7 -10
19 -19 28 -19 13 0 14 3 5 13 -14 17 -4 27 26 27 13 0 22 4 19 9 -7 11 17 21
52 21 47 0 72 11 72 31 0 25 -17 24 -25 -1 -4 -12 -13 -19 -25 -17 -23 4 -39
17 -21 17 7 0 11 6 8 14 -4 10 0 12 15 8 14 -3 19 -1 14 6 -3 6 3 16 14 22 17
9 19 14 10 25 -20 24 13 48 55 41 28 -6 35 -4 35 9 0 18 12 19 28 3 17 -17 15
-28 -4 -28 -9 0 -18 -9 -21 -20 -3 -11 -14 -20 -24 -20 -20 0 -25 -15 -9 -25
6 -4 8 -10 5 -15 -6 -9 25 -23 34 -15 3 3 -1 10 -8 14 -10 7 -7 13 13 26 18
12 23 21 16 25 -8 5 -4 13 11 24 22 15 23 18 7 29 -10 9 -14 22 -11 39 6 33
42 45 61 20 11 -15 10 -17 -12 -20 -27 -3 -37 -22 -12 -22 8 0 21 -3 29 -6 9
-3 16 3 20 17 4 16 11 20 27 16 11 -3 27 1 36 10 8 8 17 13 20 10 7 -7 -5 -47
-14 -46 -24 4 -30 -3 -23 -28 7 -26 31 -45 31 -25 0 5 12 13 26 16 16 4 24 12
21 20 -3 8 0 19 6 25 8 8 7 11 -6 11 -9 0 -17 5 -17 10 0 14 38 50 53 50 8 0
7 -4 -3 -10 -13 -8 -13 -10 1 -10 18 0 51 43 48 63 -1 6 3 25 10 41 6 16 10
31 7 33 -2 3 -7 -5 -11 -16 -3 -12 -13 -21 -21 -21 -8 0 -14 -10 -14 -26 0
-15 -4 -23 -10 -19 -6 4 -18 1 -27 -7 -15 -11 -16 -11 -10 5 5 12 1 17 -13 17
-15 0 -20 7 -20 26 0 21 3 24 14 15 10 -9 16 -8 26 4 18 22 32 18 25 -7 -5
-17 6 -10 39 26 25 26 46 50 46 52 0 10 -29 3 -34 -8 -3 -7 -3 -3 0 10 3 12 1
22 -5 22 -6 0 -11 -8 -11 -18 0 -20 -34 -41 -61 -40 -16 1 -19 13 -8 33 4 6 9
24 12 40 4 17 4 25 1 19 -4 -9 -14 -8 -36 4 -29 14 -34 14 -61 -1 -16 -10 -35
-17 -43 -17 -8 0 -15 -6 -15 -12 -1 -7 -2 -20 -3 -28 0 -8 -10 -16 -21 -18
-11 -2 -25 -11 -32 -19 -6 -8 -16 -12 -22 -9 -5 4 -12 2 -16 -4 -4 -6 -11 -5
-21 4 -17 18 -18 29 -1 23 6 -2 20 3 30 11 14 13 20 14 26 3 11 -17 42 14 35
34 -8 20 -21 19 -28 -2 -3 -10 -4 -4 -2 13 1 23 -1 31 -11 27 -7 -3 -13 0 -13
6 0 6 9 11 20 11 11 0 20 5 20 10 0 12 -30 13 -46 2z m159 -47 c-3 -9 -8 -14
-10 -11 -3 3 -2 9 2 15 9 16 15 13 8 -4z m-16 -46 c-14 -8 -22 -8 -30 0 -8 8
-3 11 19 11 25 -1 27 -2 11 -11z m45 -13 c-2 -9 3 -16 9 -16 7 0 3 -8 -8 -17
-11 -10 -18 -24 -15 -32 3 -10 0 -12 -12 -8 -9 4 -16 2 -16 -4 0 -5 -8 -13
-17 -16 -10 -4 -34 -24 -54 -46 -31 -34 -40 -38 -66 -33 -27 6 -31 12 -35 48
-2 22 1 47 8 56 15 20 123 30 134 12 6 -11 12 -10 25 4 12 12 15 20 7 28 -7 7
-5 16 7 28 19 22 37 20 33 -4z m-433 -84 c6 -10 7 -28 4 -40 -6 -24 6 -29 24
-11 8 8 13 8 17 0 4 -6 1 -11 -6 -12 -7 0 -2 -5 11 -10 16 -6 21 -14 17 -27
-7 -16 -6 -16 11 1 16 15 16 19 3 27 -13 8 -10 15 16 41 23 23 34 28 39 19 5
-8 4 -11 -2 -7 -6 4 -16 0 -22 -7 -9 -11 -9 -16 0 -22 7 -4 15 -2 17 4 9 29
72 6 72 -27 0 -12 -3 -11 -13 3 -10 14 -17 15 -41 6 -23 -8 -31 -8 -37 2 -4 7
-11 9 -16 5 -4 -5 -2 -11 4 -15 16 -10 -3 -53 -27 -59 -11 -3 -20 -13 -20 -22
0 -14 2 -14 10 -1 8 13 10 13 10 -1 0 -9 -9 -19 -20 -22 -17 -4 -19 -1 -14 18
8 33 -3 63 -27 70 -10 4 -17 10 -15 14 7 10 -12 37 -20 28 -12 -12 15 -59 38
-65 21 -5 21 -5 -2 -14 -12 -5 -25 -6 -28 -3 -3 3 0 5 6 5 6 0 -5 17 -24 37
-30 31 -33 38 -19 43 9 3 16 10 15 15 -2 19 8 45 19 45 6 0 15 -8 20 -18z m38
-7 c0 -17 -13 -20 -21 -6 -4 5 0 12 6 14 7 3 13 6 14 6 0 1 1 -6 1 -14z m-92
-15 c-3 -5 -11 -10 -16 -10 -6 0 -7 5 -4 10 3 6 11 10 16 10 6 0 7 -4 4 -10z
m435 -20 c0 -5 -4 -10 -10 -10 -5 0 -10 5 -10 10 0 6 5 10 10 10 6 0 10 -4 10
-10z m30 6 c0 -3 -4 -8 -10 -11 -5 -3 -10 -1 -10 4 0 6 5 11 10 11 6 0 10 -2
10 -4z m-49 -43 c10 -11 10 -14 2 -9 -7 4 -13 2 -13 -3 0 -6 -7 -11 -15 -11
-13 0 -14 4 -5 20 13 24 14 24 31 3z m-159 -13 c10 0 18 -4 18 -10 0 -19 -44
-50 -72 -50 -25 0 -27 3 -26 35 1 39 13 46 23 15 4 -11 11 -18 16 -14 5 3 7
15 3 27 -5 18 -4 20 7 10 7 -7 21 -13 31 -13z m-286 -45 c4 -10 14 -13 30 -9
30 8 30 1 2 -28 -44 -45 -51 -57 -40 -71 8 -9 3 -13 -19 -14 -15 -1 -31 2 -34
8 -8 13 -25 1 -25 -17 0 -8 5 -12 10 -9 6 3 10 1 10 -4 0 -6 -7 -11 -16 -11
-10 0 -14 -6 -11 -15 4 -8 2 -17 -4 -20 -5 -4 -12 1 -15 9 -3 9 -12 16 -20 16
-16 0 -19 26 -5 35 5 3 12 1 16 -5 11 -18 23 -10 30 21 6 29 8 29 25 14 21
-19 34 -6 23 22 -6 16 -5 16 10 4 15 -12 17 -11 17 8 0 25 -25 28 -39 4 -9
-17 -10 -17 -17 0 -4 12 2 27 22 47 33 33 42 36 50 15z m-186 -11 c0 -8 -4
-12 -10 -9 -5 3 -10 10 -10 16 0 5 5 9 10 9 6 0 10 -7 10 -16z m395 -15 c12
-19 -5 -23 -22 -6 -16 16 -16 17 -1 17 9 0 20 -5 23 -11z m-318 -34 c0 -11 -4
-12 -14 -4 -7 6 -13 15 -13 20 0 5 6 6 13 3 8 -3 14 -11 14 -19z m-65 -17 c-8
-8 -9 -4 -5 13 4 13 8 18 11 10 2 -7 -1 -18 -6 -23z m313 -7 c9 -19 11 -32 5
-36 -6 -3 -10 -17 -10 -29 0 -16 -7 -26 -21 -29 -27 -7 -57 19 -41 35 8 8 8
17 1 30 -10 19 -3 42 11 33 4 -3 13 2 20 10 16 20 17 20 35 -14z m48 9 c-3
-12 -8 -19 -11 -16 -5 6 5 36 12 36 2 0 2 -9 -1 -20z m-304 -30 c-6 -5 -19 -6
-27 -2 -13 4 -12 7 4 12 23 9 41 1 23 -10z m171 0 c0 -5 -2 -10 -4 -10 -3 0
-8 5 -11 10 -3 6 -1 10 4 10 6 0 11 -4 11 -10z m-64 -47 c-4 -9 -2 -19 4 -23
6 -4 -3 -7 -20 -7 -35 0 -36 4 -13 29 20 23 37 24 29 1z m64 -12 c0 -17 -15
-19 -35 -5 -18 13 -18 14 8 14 15 0 27 -4 27 -9z m-190 -52 c0 -10 -23 -17
-37 -11 -7 2 -11 7 -9 11 6 9 46 9 46 0z m-50 -29 c0 -5 -8 -10 -17 -10 -15 0
-16 2 -3 10 19 12 20 12 20 0z"/>
<path d="M350 150 c0 -5 5 -10 10 -10 6 0 10 5 10 10 0 6 -4 10 -10 10 -5 0
-10 -4 -10 -10z"/>
<path d="M331 134 c0 -11 3 -14 6 -6 3 7 2 16 -1 19 -3 4 -6 -2 -5 -13z"/>
<path d="M3835 590 c3 -5 8 -10 11 -10 2 0 4 5 4 10 0 6 -5 10 -11 10 -5 0 -7
-4 -4 -10z"/>
<path d="M876 573 c-3 -10 -9 -25 -12 -33 -4 -8 3 -5 15 7 22 23 28 43 12 43
-5 0 -11 -8 -15 -17z"/>
<path d="M3580 580 c0 -5 5 -10 11 -10 5 0 7 5 4 10 -3 6 -8 10 -11 10 -2 0
-4 -4 -4 -10z"/>
<path d="M74 559 c-3 -5 0 -18 6 -29 13 -25 3 -71 -11 -49 -5 8 -9 10 -9 4 1
-5 8 -19 17 -30 13 -16 15 -17 10 -2 -4 9 -2 17 3 17 6 0 10 14 10 30 0 17 5
30 11 30 8 0 9 4 0 13 -6 8 -9 16 -6 19 3 2 -2 5 -10 5 -9 0 -18 -4 -21 -8z"/>
<path d="M3886 541 c11 -18 27 -39 37 -45 9 -6 17 -16 17 -22 0 -7 7 -14 15
-18 30 -11 13 20 -37 69 -47 46 -49 47 -32 16z"/>
<path d="M2513 530 c-9 -16 -25 -31 -35 -31 -35 -3 -108 -30 -108 -40 0 -4
-15 -9 -32 -12 -18 -3 -42 -7 -53 -9 -16 -2 -19 2 -18 20 2 14 -3 22 -12 22
-8 0 -15 -4 -15 -10 0 -22 -34 -8 -67 27 l-35 36 17 -39 c30 -73 68 -129 130
-190 53 -54 68 -63 115 -73 61 -12 119 -3 130 19 20 40 52 240 38 240 -4 0 -8
9 -8 19 0 26 -10 51 -21 51 -4 0 -16 -13 -26 -30z"/>
<path d="M3487 530 c3 -11 9 -20 14 -20 5 0 9 9 9 20 0 11 -6 20 -14 20 -9 0
-12 -7 -9 -20z"/>
<path d="M275 530 c3 -5 11 -10 16 -10 6 0 7 5 4 10 -3 6 -11 10 -16 10 -6 0
-7 -4 -4 -10z"/>
<path d="M885 531 c-6 -11 9 -23 19 -14 9 9 7 23 -3 23 -6 0 -12 -4 -16 -9z"/>
<path d="M30 490 c-17 -22 -26 -40 -20 -40 14 0 40 25 40 39 0 5 7 14 16 19
10 6 13 12 6 16 -6 3 -25 -12 -42 -34z"/>
<path d="M155 510 c-3 -5 -2 -10 4 -10 5 0 13 5 16 10 3 6 2 10 -4 10 -5 0
-13 -4 -16 -10z"/>
<path d="M1446 501 c-6 -9 71 -67 79 -59 3 2 -7 19 -22 36 -26 32 -47 40 -57
23z"/>
<path d="M3258 493 c-21 -2 -38 -7 -38 -10 0 -16 48 -58 70 -61 50 -7 145 -46
158 -64 17 -24 31 -23 25 2 -7 26 -54 62 -115 86 -49 19 -62 39 -30 47 20 6
-17 5 -70 0z"/>
<path d="M3985 481 c-3 -5 -1 -12 5 -16 5 -3 10 1 10 9 0 18 -6 21 -15 7z"/>
<path d="M990 440 c0 -5 5 -10 10 -10 6 0 10 5 10 10 0 6 -4 10 -10 10 -5 0
-10 -4 -10 -10z"/>
<path d="M1490 410 c-8 -5 -37 -7 -65 -4 -35 4 -56 1 -69 -9 -18 -13 -13 -15
55 -21 84 -8 138 6 118 31 -13 15 -19 16 -39 3z"/>
<path d="M3282 388 c5 -15 68 -24 68 -10 0 10 -32 22 -58 22 -8 0 -12 -6 -10
-12z"/>
<path d="M3980 380 c0 -5 5 -10 10 -10 6 0 10 5 10 10 0 6 -4 10 -10 10 -5 0
-10 -4 -10 -10z"/>
<path d="M1190 334 c-24 -14 -65 -45 -91 -69 -36 -34 -58 -45 -105 -55 -32 -7
-65 -14 -71 -16 -20 -5 -15 -21 8 -27 18 -5 20 -11 14 -36 -4 -17 -5 -31 -2
-31 3 0 22 17 43 38 128 124 189 170 230 177 23 3 50 15 59 25 18 19 17 20
-11 20 -16 0 -49 -12 -74 -26z"/>
<path d="M3437 320 c3 -11 9 -20 14 -20 11 0 11 3 3 24 -9 23 -23 20 -17 -4z"/>
<path d="M76 321 c-9 -15 23 -36 35 -24 8 8 5 14 -9 22 -12 6 -23 7 -26 2z"/>
<path d="M3310 323 c0 -4 21 -28 46 -53 25 -25 56 -67 69 -95 12 -27 32 -59
44 -69 l21 -19 0 35 c0 21 -10 50 -24 71 -13 19 -22 37 -20 40 6 6 -58 55
-103 80 -18 10 -33 15 -33 10z"/>
<path d="M1912 308 c5 -15 28 -23 28 -10 0 5 -7 13 -16 16 -10 4 -14 1 -12 -6z"/>
<path d="M3485 310 c-7 -11 22 -26 32 -17 3 4 18 0 34 -8 32 -17 69 -20 69 -5
0 6 -12 10 -27 10 -16 0 -41 7 -57 15 -33 18 -43 19 -51 5z"/>
<path d="M3732 290 c7 -10 14 -18 15 -16 6 6 -9 36 -18 36 -5 0 -4 -9 3 -20z"/>
<path d="M1980 280 c0 -5 5 -10 10 -10 6 0 10 5 10 10 0 6 -4 10 -10 10 -5 0
-10 -4 -10 -10z"/>
<path d="M1120 240 c-39 -49 -24 -53 19 -5 33 38 36 45 22 45 -5 0 -24 -18
-41 -40z"/>
<path d="M1720 258 c0 -18 27 -44 37 -34 4 4 -3 16 -15 29 -18 17 -22 18 -22
5z"/>
<path d="M3485 260 c4 -6 11 -8 16 -5 14 9 11 15 -7 15 -8 0 -12 -5 -9 -10z"/>
<path d="M3550 260 c0 -5 5 -10 11 -10 5 0 7 5 4 10 -3 6 -8 10 -11 10 -2 0
-4 -4 -4 -10z"/>
<path d="M676 235 c-3 -8 -3 -22 0 -30 7 -17 24 -20 24 -5 0 6 -5 10 -11 10
-6 0 -8 9 -4 20 7 23 0 27 -9 5z"/>
<path d="M1611 218 c5 -18 9 -49 9 -69 0 -20 5 -61 11 -92 l12 -57 93 0 93 0
-9 28 c-40 119 -54 152 -61 140 -4 -7 -4 -32 1 -55 9 -53 2 -93 -15 -87 -20 8
-89 114 -109 166 -20 55 -39 74 -25 26z"/>
<path d="M3515 240 c3 -5 8 -10 11 -10 2 0 4 5 4 10 0 6 -5 10 -11 10 -5 0 -7
-4 -4 -10z"/>
<path d="M610 225 c0 -7 30 -13 34 -7 3 4 -4 9 -15 9 -10 1 -19 0 -19 -2z"/>
<path d="M1980 215 c7 -9 15 -13 17 -11 7 7 -7 26 -19 26 -6 0 -6 -6 2 -15z"/>
<path d="M3735 220 c3 -5 11 -10 16 -10 6 0 7 5 4 10 -3 6 -11 10 -16 10 -6 0
-7 -4 -4 -10z"/>
<path d="M1368 177 c-42 -69 -59 -107 -55 -125 3 -12 8 -7 17 17 7 19 26 59
41 90 15 30 27 56 26 58 -2 1 -14 -17 -29 -40z"/>
<path d="M3560 210 c0 -5 5 -10 10 -10 6 0 10 5 10 10 0 6 -4 10 -10 10 -5 0
-10 -4 -10 -10z"/>
<path d="M3595 210 c-3 -5 -1 -10 4 -10 6 0 11 5 11 10 0 6 -2 10 -4 10 -3 0
-8 -4 -11 -10z"/>
<path d="M790 200 c0 -5 5 -10 10 -10 6 0 10 5 10 10 0 6 -4 10 -10 10 -5 0
-10 -4 -10 -10z"/>
<path d="M1061 159 c-24 -38 -26 -49 -10 -49 11 0 43 69 35 77 -3 3 -14 -10
-25 -28z"/>
<path d="M657 173 c-10 -9 -8 -43 2 -43 5 0 11 11 13 25 5 24 -2 32 -15 18z"/>
<path d="M470 160 c0 -5 5 -10 11 -10 5 0 7 5 4 10 -3 6 -8 10 -11 10 -2 0 -4
-4 -4 -10z"/>
<path d="M725 146 c-19 -15 -18 -15 17 -16 20 0 40 5 43 10 3 6 2 10 -4 10 -5
0 -15 2 -23 5 -7 3 -22 -1 -33 -9z"/>
<path d="M595 141 c-3 -5 -1 -12 5 -16 5 -3 10 1 10 9 0 18 -6 21 -15 7z"/>
<path d="M750 111 c0 -6 5 -13 10 -16 6 -3 10 1 10 9 0 9 -4 16 -10 16 -5 0
-10 -4 -10 -9z"/>
<path d="M486 95 c-3 -8 -1 -15 4 -15 6 0 10 7 10 15 0 8 -2 15 -4 15 -2 0 -6
-7 -10 -15z"/>
<path d="M685 100 c3 -5 8 -10 11 -10 2 0 4 5 4 10 0 6 -5 10 -11 10 -5 0 -7
-4 -4 -10z"/>
<path d="M3798 103 c-27 -6 -22 -18 7 -18 14 0 25 3 25 7 0 11 -13 15 -32 11z"/>
<path d="M3450 67 c0 -41 5 -46 19 -19 6 12 5 23 -5 37 -13 17 -14 16 -14 -18z"/>
<path d="M3928 83 c-10 -2 -18 -9 -18 -15 0 -6 10 -8 23 -4 12 3 25 6 30 6 4
0 7 5 7 10 0 10 -12 11 -42 3z"/>
<path d="M625 70 c3 -5 14 -10 23 -10 15 0 15 2 2 10 -20 13 -33 13 -25 0z"/>
<path d="M1887 68 c-2 -7 8 -24 22 -38 23 -23 35 -25 121 -28 l95 -2 -65 24
c-36 13 -82 31 -102 40 -45 19 -65 20 -71 4z"/>
<path d="M401 51 c-9 -6 -10 -11 -2 -15 13 -8 31 1 31 15 0 11 -11 11 -29 0z"/>
<path d="M595 50 c-3 -5 -1 -10 4 -10 6 0 11 5 11 10 0 6 -2 10 -4 10 -3 0 -8
-4 -11 -10z"/>
<path d="M675 50 c-18 -7 -18 -9 -3 -15 23 -9 39 -3 30 11 -4 7 -15 8 -27 4z"/>
<path d="M786 52 c-2 -4 4 -9 15 -9 10 -1 19 2 19 8 0 11 -27 12 -34 1z"/>
<path d="M3640 40 c-11 -7 -12 -12 -4 -20 8 -8 13 -6 17 9 3 12 4 21 4 21 -1
0 -9 -5 -17 -10z"/>
<path d="M646 27 c3 -10 9 -15 12 -12 3 3 0 11 -7 18 -10 9 -11 8 -5 -6z"/>
<path d="M94 8 c-7 -11 58 -10 76 2 11 7 3 9 -28 8 -24 -1 -45 -5 -48 -10z"/>
<path d="M515 10 c3 -5 8 -10 11 -10 2 0 4 5 4 10 0 6 -5 10 -11 10 -5 0 -7
-4 -4 -10z"/>
<path d="M3110 10 c0 -5 5 -10 10 -10 6 0 10 5 10 10 0 6 -4 10 -10 10 -5 0
-10 -4 -10 -10z"/>
<path d="M3765 10 c-3 -5 1 -10 9 -10 8 0 18 5 21 10 3 6 -1 10 -9 10 -8 0
-18 -4 -21 -10z"/>
<path d="M718 3 c7 -3 16 -2 19 1 4 3 -2 6 -13 5 -11 0 -14 -3 -6 -6z"/>
<path d="M798 3 c7 -3 16 -2 19 1 4 3 -2 6 -13 5 -11 0 -14 -3 -6 -6z"/>
</g>
</svg>
